<?xml version="1.0" encoding="utf-8"?><svg viewBox="0 0 180 195" xmlns="http://www.w3.org/2000/svg" xmlns:xlink="http://www.w3.org/1999/xlink"><style>:root>svg{display:none}:root>svg:target{display:block}</style><svg viewBox="0 0 8 12" id="arrow" xmlns="http://www.w3.org/2000/svg"><path d="M6.8 5.4L2.3.7C2 .4 1.5.4 1.2.7s-.3.8 0 1.1l4 4.2-4 4.2c-.3.3-.3.8 0 1.1.2.1.4.2.6.2s.4-.1.5-.2l4.5-4.7c.3-.4.3-.8 0-1.2z"/></svg><svg viewBox="0 0 20 60" id="arrow-tall" xmlns="http://www.w3.org/2000/svg"><path d="M0 60h3.5L20 30 3.5 0H0l16.2 30L0 60z"/></svg><svg viewBox="0 0 16 14" id="cart" xmlns="http://www.w3.org/2000/svg"><path d="M15.3 5l-3.5.2L8.6.3C8.5.1 8.2 0 8 0c-.2 0-.5.1-.6.3L4.2 5.2H.7c-.4 0-.7.3-.7.7v.2l1.9 6.8c.2.7.7 1.1 1.4 1.1h9.4c.7 0 1.2-.4 1.4-1.1L16 6v-.2c0-.4-.3-.8-.7-.8zM8 1.9l2.2 3.2H5.9L8 1.9z"/></svg><svg viewBox="0 0 160 160" id="category-1" xmlns="http://www.w3.org/2000/svg"><path d="M115.7 85.1V72.5c0-1.3 1.1-2.4 2.3-2.4l8.3 1.6v-8.2c0-2.4-1.7-3.4-4.2-4.3l-23.2-6.6c1.6 1.4 1.9 2 1.9 4.4v45.2c0 2.4-.5 4.1-2 5.2l23.3-7.1c2.4-.8 4.2-4.2 4.2-6.6v-7.9l-8.3 1.6c-1.3.1-2.3-.9-2.3-2.3 0 .1 0 .1 0 0z"/><path d="M126.7 73.5l-7.6-1.4c-1 0-1.8.8-1.8 1.9v9.9c0 1 .8 1.9 1.8 1.9l7.6-1.4c1.2-.4 1.8-.8 1.8-1.9v-7c0-1.2-.8-1.7-1.8-2zM98.7 57c0-5.1-4.2-4.5-4.2-4.5s-57.1 4.7-60.1 5.1c-3 .4-2.8 4.4-2.8 4.4v36.3c0 3.7 2.6 3.8 2.6 3.8l16.5 1.4 8.1-11.7s1.1-1.8 2.5-1.8 2.4 1.9 2.4 1.9l9.1 13.5s18.9 1.9 22.5 1.9c3.6 0 3.4-5 3.4-5V57zM44.5 89.7c-3.7 0-6.7-4.6-6.7-10.3 0-5.7 3-10.3 6.7-10.3s6.7 4.6 6.7 10.3c0 5.7-3 10.3-6.7 10.3zm36.2 1.4c-4.7 0-8.4-5.2-8.4-11.7 0-6.5 3.8-11.7 8.4-11.7 4.7 0 8.4 5.2 8.4 11.7 0 6.5-3.8 11.7-8.4 11.7z"/></svg><svg viewBox="0 0 160 160" id="category-2" xmlns="http://www.w3.org/2000/svg"><path d="M119.8 25.5H40.3c-1.8 0-3.2 1.4-3.2 3.2v46.4c0 1.8 1.4 3.2 3.2 3.2h79.5c1.8 0 3.2-1.4 3.2-3.2V28.7c-.1-1.8-1.5-3.2-3.2-3.2zM45.3 58.7h-.2c-1.8 0-3.2-1.4-3.2-3.2v-7.3c0-1.8 1.4-3.2 3.2-3.2h.2v13.7zm61.3 15.2H50.3v-44h56.3c-.1 0-.1 44 0 44zm8.7-17.9c-2.3.1-4.2-1.7-4.3-3.9-.1-2.3 1.7-4.2 3.9-4.3h.4c2.3 0 4.1 1.9 4.1 4.2.1 2.2-1.8 4-4.1 4zM91.6 21.5H68.4v2.8h23.2v-2.8zM83.5 86.4v-3h8v-2.8H68.4v2.8h8v35.2c-2.2 1-3.6 3.2-3.6 5.6v14.3h14.3v-14.3c0-2.5-1.5-4.6-3.6-5.6v-28h4.8l5 1.2v-6.7l-5.1 1.2h-4.7z"/></svg><svg viewBox="0 0 160 160" id="category-3" xmlns="http://www.w3.org/2000/svg"><path d="M97.8 38c0-.7-.6-1.5-1.3-1.5h-43c-.7 0-1.4.8-1.4 1.5v3.5h45.7V38zM98.7 118.3h-9.6v-10.4h-7v2.5H63.3c-.5-1.3-1.8-2.1-3.2-2.2H48a3.7 3.7 0 00-3.6 3.5v3c0 1.9 1.6 3.5 3.6 3.5h12c1.5 0 2.8-.9 3.3-2.3h18.8v2.3h-9.5a1 1 0 00-1 1v3.2c0 .5.5 1.1 1 1.1h26.1c.5 0 .9-.5.9-1.1v-3.2c0-.4-.4-.9-.9-.9zM105.2 48.9c-.9-3-3.6-5.1-6.8-5H51.6c-3.9 0-7.1 3.1-7.1 7v46.9c0 3.9 3.2 7.1 7.1 7.1h46.7c3.9 0 7.1-3.2 7.1-7.1V87.4a23.18 23.18 0 005.8-32.4c-1.5-2.4-3.6-4.5-6-6.1zM56.7 98.7a5.91 5.91 0 010-11.8 5.91 5.91 0 010 11.8zm6-32.6c0 .8-.6 1.4-1.4 1.4h-8.9c-.8 0-1.4-.6-1.4-1.4V51.9c0-.8.6-1.4 1.4-1.4h8.9c.8 0 1.4.6 1.4 1.4v14.2zm29.5 22.3a20.1 20.1 0 1120.1-20.1c0 11-9 20-20.1 20.1z"/><path d="M92.2 80.5c6.7 0 12.2-5.5 12.2-12.2 0-6.7-5.4-12.2-12.2-12.2-6.7 0-12.2 5.5-12.2 12.2 0 6.7 5.5 12.1 12.2 12.2zM76 69.7a1.46 1.46 0 10.3-2.9h-.2c-.8.1-1.4.8-1.3 1.6 0 .7.5 1.2 1.2 1.3zM108.4 69.7a1.46 1.46 0 10.3-2.9h-.2c-.8.1-1.4.8-1.3 1.6 0 .7.5 1.2 1.2 1.3zM83.6 55.9a1.46 1.46 0 10.3-2.9h-.2c-.8.1-1.4.8-1.3 1.6-.1.7.5 1.3 1.2 1.3zM100.9 83.4c.8 0 1.4-.6 1.4-1.4 0-.8-.6-1.4-1.4-1.4-.8 0-1.4.6-1.4 1.4 0 .8.6 1.4 1.4 1.4zM100.2 55.5a1.46 1.46 0 10.3-2.9h-.2c-.8.1-1.4.8-1.3 1.6-.1.7.5 1.2 1.2 1.3zM84.3 83.8a1.46 1.46 0 10.3-2.9h-.2c-.8.1-1.4.8-1.3 1.6 0 .7.5 1.3 1.2 1.3z"/></svg><svg viewBox="0 0 160 160" id="category-4" xmlns="http://www.w3.org/2000/svg"><path d="M125.3 51.7c.8 1.5 1.2 3.1 1.2 4.8v21.1c0 4.5-2.9 8.5-7.2 9.9-1.3 4-3.8 7.9-8.1 10.4-8.7 5.2-31.1 4.8-31.2 4.8s-22.5.4-31.2-4.8c-3.8-2.4-6.7-6-8-10.3A10.5 10.5 0 0133 77.5v-21c0-1.7.4-3.3 1.1-4.7-3.7.9-7.8 2.7-7.8 6.2v30c0 10.3 11.8 24.4 53.7 24.4s53.6-14.2 53.6-24.4V58c.1-3.6-4.5-5.4-8.3-6.3z"/><path d="M46.9 86.1h65.5c5.6 0 10.1-4.5 10.1-10.1V57.6c0-5.6-4.5-10.1-10.1-10.1H46.9c-5.6 0-10.1 4.5-10.1 10.1V76c0 5.6 4.5 10.1 10.1 10.1zm63.1-29c.9 0 1.6.7 1.6 1.6 0 .9-.7 1.6-1.6 1.6-.9 0-1.6-.7-1.6-1.6.1-.9.8-1.6 1.6-1.6zm0 4.1c.9 0 1.6.7 1.6 1.6 0 .9-.7 1.6-1.6 1.6s-1.6-.7-1.6-1.6c.1-.9.8-1.6 1.6-1.6zm0 4c.9-.1 1.6.6 1.7 1.4.1.9-.6 1.6-1.4 1.7h-.3c-.9-.1-1.5-.8-1.4-1.7.1-.7.7-1.3 1.4-1.4zm0 3.8c.9 0 1.6.7 1.6 1.6 0 .9-.7 1.6-1.6 1.6-.9 0-1.6-.7-1.6-1.6.1-.9.8-1.6 1.6-1.6zm0 4.1c.9 0 1.6.7 1.6 1.6 0 .9-.7 1.6-1.6 1.6-.9 0-1.6-.7-1.6-1.6.1-.9.8-1.6 1.6-1.6zm-4-16c.9 0 1.6.7 1.6 1.6s-.7 1.6-1.6 1.6-1.6-.7-1.6-1.6.7-1.6 1.6-1.6zm0 16c.9 0 1.6.7 1.6 1.6 0 .9-.7 1.6-1.6 1.6-.9 0-1.6-.7-1.6-1.6 0-.9.7-1.6 1.6-1.6zm-4-16c.9 0 1.6.7 1.6 1.6s-.7 1.6-1.6 1.6-1.6-.7-1.6-1.6.7-1.6 1.6-1.6zm0 4.1c.9 0 1.6.7 1.6 1.6 0 .9-.7 1.6-1.6 1.6-.9 0-1.6-.7-1.6-1.6 0-.9.7-1.6 1.6-1.6zm0 4c.9-.1 1.6.6 1.7 1.4.1.9-.6 1.6-1.4 1.7h-.3c-.9-.1-1.5-.8-1.4-1.7 0-.7.6-1.3 1.4-1.4zm0 3.8c.9 0 1.6.7 1.6 1.6 0 .9-.7 1.6-1.6 1.6-.9 0-1.6-.7-1.6-1.6 0-.9.7-1.6 1.6-1.6zm0 4.1c.9 0 1.6.7 1.6 1.6 0 .9-.7 1.6-1.6 1.6-.9 0-1.6-.7-1.6-1.6 0-.9.7-1.6 1.6-1.6zm-7.7-16c.9 0 1.6.7 1.6 1.6s-.7 1.6-1.6 1.6-1.6-.7-1.6-1.6.7-1.6 1.6-1.6zm0 8.1c.9-.1 1.6.6 1.7 1.4.1.9-.6 1.6-1.4 1.7h-.3c-.9-.1-1.5-.8-1.4-1.7 0-.7.6-1.3 1.4-1.4zm0 3.9c.9-.1 1.6.6 1.7 1.4.1.9-.6 1.6-1.4 1.7h-.3c-.9-.1-1.5-.8-1.4-1.7 0-.8.6-1.4 1.4-1.4zm0 4c.9 0 1.6.7 1.6 1.6 0 .9-.7 1.6-1.6 1.6-.9 0-1.6-.7-1.6-1.6 0-.9.7-1.6 1.6-1.6zm-4-16c.9 0 1.6.7 1.6 1.6s-.7 1.6-1.6 1.6-1.6-.7-1.6-1.6.7-1.6 1.6-1.6zm0 8.1c.9-.1 1.6.6 1.7 1.4.1.9-.6 1.6-1.4 1.7h-.3c-.9-.1-1.5-.8-1.4-1.7 0-.7.6-1.3 1.4-1.4zm0 7.9c.9 0 1.6.7 1.6 1.6 0 .9-.7 1.6-1.6 1.6-.9 0-1.6-.7-1.6-1.6 0-.9.7-1.6 1.6-1.6zm-4.1-16c.9 0 1.6.7 1.6 1.6s-.7 1.6-1.6 1.6-1.6-.7-1.6-1.6.8-1.6 1.6-1.6zm0 4.1c.9 0 1.6.7 1.6 1.6s-.7 1.6-1.6 1.6c-.9 0-1.6-.7-1.6-1.6.1-.9.8-1.6 1.6-1.6zm0 4c.9 0 1.6.7 1.6 1.6s-.7 1.6-1.6 1.6c-.9 0-1.6-.7-1.6-1.6.1-.9.8-1.6 1.6-1.6zm0 7.9c.9 0 1.6.7 1.6 1.6s-.7 1.6-1.6 1.6c-.9 0-1.6-.7-1.6-1.6.1-.9.8-1.6 1.6-1.6zm-8.3-16c.9 0 1.6.7 1.6 1.6s-.7 1.6-1.6 1.6c-.9 0-1.6-.7-1.6-1.6s.8-1.6 1.6-1.6zm0 4.1c.9 0 1.6.7 1.6 1.6 0 .9-.7 1.6-1.6 1.6-.9 0-1.6-.7-1.6-1.6.1-.9.8-1.6 1.6-1.6zm0 4c.9-.1 1.6.6 1.7 1.4.1.9-.6 1.6-1.4 1.7h-.3c-.9-.1-1.5-.8-1.4-1.7.1-.7.7-1.3 1.4-1.4zm0 3.9c.9-.1 1.6.6 1.7 1.4.1.9-.6 1.6-1.4 1.7h-.3c-.9-.1-1.5-.8-1.4-1.7.1-.8.7-1.4 1.4-1.4zm0 4c.9 0 1.6.7 1.6 1.6 0 .9-.7 1.6-1.6 1.6-.9 0-1.6-.7-1.6-1.6.1-.9.8-1.6 1.6-1.6zm-4-11.9c.9-.1 1.6.6 1.7 1.4s-.6 1.6-1.4 1.7h-.3c-.9-.1-1.5-.8-1.4-1.7 0-.8.6-1.4 1.4-1.4zm-8.5-.3c.9 0 1.6.7 1.6 1.6 0 .9-.7 1.6-1.6 1.6-.9 0-1.6-.7-1.6-1.6 0-.9.7-1.6 1.6-1.6zm0 4.1c.9 0 1.6.7 1.6 1.6 0 .9-.7 1.6-1.6 1.6-.9 0-1.6-.7-1.6-1.6 0-.9.7-1.6 1.6-1.6zm-4-8.1c.9-.1 1.6.6 1.7 1.4.1.9-.6 1.6-1.4 1.7h-.3c-.9-.1-1.5-.8-1.4-1.7 0-.7.6-1.3 1.4-1.4zm0 4c.9-.1 1.6.6 1.7 1.4.1.9-.6 1.6-1.4 1.7h-.3c-.9-.1-1.5-.8-1.4-1.7 0-.7.6-1.3 1.4-1.4zm0 4.1c.9 0 1.6.7 1.6 1.6 0 .9-.7 1.6-1.6 1.6-.9 0-1.6-.7-1.6-1.6 0-.9.7-1.6 1.6-1.6zm0 4c.9 0 1.6.7 1.6 1.6 0 .9-.7 1.6-1.6 1.6-.9 0-1.6-.7-1.6-1.6 0-.9.7-1.6 1.6-1.6zm-4.3-8.1c.9-.1 1.6.6 1.7 1.4s-.6 1.6-1.4 1.7h-.3c-.9-.1-1.5-.8-1.4-1.7 0-.7.6-1.3 1.4-1.4zm0 4.1c.9 0 1.6.7 1.6 1.6 0 .9-.7 1.6-1.6 1.6-.9 0-1.6-.7-1.6-1.6 0-.9.7-1.6 1.6-1.6zm0 4c.9 0 1.6.7 1.6 1.6 0 .9-.7 1.6-1.6 1.6-.9 0-1.6-.7-1.6-1.6 0-.9.7-1.6 1.6-1.6zm0 4.1c.9 0 1.6.7 1.6 1.6 0 .9-.7 1.6-1.6 1.6-.9 0-1.6-.7-1.6-1.6 0-.9.7-1.6 1.6-1.6zm-4.5-16.2c.9 0 1.6.7 1.6 1.6 0 .9-.7 1.6-1.6 1.6s-1.6-.7-1.6-1.6c.1-.9.8-1.6 1.6-1.6zm0 4c.9 0 1.6.7 1.6 1.6 0 .9-.7 1.6-1.6 1.6s-1.6-.7-1.6-1.6c.1-.9.8-1.6 1.6-1.6zm0 4.1c.9 0 1.6.7 1.6 1.6s-.7 1.6-1.6 1.6-1.6-.7-1.6-1.6.8-1.6 1.6-1.6zm0 4c.9 0 1.6.7 1.6 1.6 0 .9-.7 1.6-1.6 1.6s-1.6-.7-1.6-1.6c.1-.9.8-1.6 1.6-1.6zm-4-8.1c.9 0 1.6.7 1.6 1.6 0 .9-.7 1.6-1.6 1.6-.9 0-1.6-.7-1.6-1.6s.7-1.6 1.6-1.6zm0 4.1c.9 0 1.6.7 1.6 1.6 0 .9-.7 1.6-1.6 1.6-.9 0-1.6-.7-1.6-1.6 0-.9.7-1.6 1.6-1.6z"/></svg><svg viewBox="0 0 160 160" id="category-5" xmlns="http://www.w3.org/2000/svg"><path d="M106.5 63.2H105v-4.6c0-5-4-9.1-9.1-9.2H61.1c-5 0-9.1 4.1-9.1 9.2v42.9c0 5 4 9.1 9.1 9.2h34.8c5 0 9.1-4.1 9.1-9.2V98h1.5c.4 0 .8-.3.8-.8V83.5c0-.4-.3-.8-.7-.8H105v-8.8h1.5c.8 0 1.5-.7 1.5-1.5v-7.6c0-.9-.7-1.6-1.5-1.6zm-20.4-3.1a5.36 5.36 0 010 10.7c-2.9 0-5.3-2.4-5.3-5.3 0-3 2.3-5.4 5.3-5.4zm-15.1 0a5.36 5.36 0 010 10.7c-2.9 0-5.3-2.4-5.3-5.3-.1-3 2.3-5.4 5.3-5.4-.1 0-.1 0 0 0zM57.3 80.4c0-2.9 2.4-5.3 5.3-5.3s5.3 2.4 5.3 5.4c0 2.9-2.4 5.3-5.3 5.4-2.9-.1-5.3-2.5-5.3-5.5zm13.6 19.5c-2.9 0-5.3-2.4-5.3-5.3s2.4-5.3 5.3-5.4c2.9 0 5.3 2.4 5.3 5.4a5.2 5.2 0 01-5.3 5.3zM72.4 80a6.04 6.04 0 1112.1 0 6.06 6.06 0 11-12.1 0zm13.7 19.9c-2.9 0-5.3-2.4-5.3-5.3s2.4-5.3 5.3-5.4a5.36 5.36 0 010 10.7zm8.3-14.1c-2.9 0-5.3-2.4-5.3-5.4 0-2.9 2.4-5.3 5.3-5.4 2.9 0 5.3 2.4 5.3 5.4 0 3-2.4 5.4-5.3 5.4zM61.7 46.3h33.7c.8 0 1.4-.7 1.3-1.5L95 34c-.3-1.7-1.8-3-3.5-3h-26c-1.7.1-3.2 1.3-3.5 3l-1.6 10.8c-.2.8.4 1.5 1.3 1.5zM95.3 113.7H61.7c-.8 0-1.4.7-1.3 1.5L62 126c.3 1.7 1.8 3 3.5 3h26c1.7-.1 3.2-1.3 3.5-3l1.6-10.8c.1-.7-.3-1.4-1-1.5h-.3z"/></svg><svg viewBox="0 0 160 160" id="category-6" xmlns="http://www.w3.org/2000/svg"><path d="M26 45.8c-5.5.5-10.2 1.6-11.5 2.7-.7.6-.7.6-.2 1.2.7.7 3.7 1.6 7.3 2.2 4 .7 12.5.7 13.7 0 1.2-.7 1.6-1.4 1.6-3s-.6-2.4-2.2-2.8c-1.4-.4-5.8-.6-8.7-.3zM39.8 46c-.1.3-.3 2.1-.3 4.1 0 4.1.1 3.8-2.2 3.9l-1 .1-.3 5.1-1.2.3c-2.5.5-4.1 2.8-3.8 5.3.1 1.9 1 3.3 2.6 4.1 1.1.5 1.5.5 11.2.5 5.5 0 10.1.1 10.2.2 0 .1-1.1 9.4-2.6 20.6-1.4 11.2-2.7 21-2.7 21.7-.1 1.6.8 2.6 2.3 2.6 1.2 0 2-.6 2.3-1.9.1-.5 1.5-10.3 3-21.8.9-7 1.9-13.9 2.9-20.9.1 0 1.1 1.4 2.2 3.1 2.9 4.6 2.4 4.3 7.6 4.3h4.4V83l-5.1.1c-4.7.1-5.2.1-5.9.6-1.6 1.2-1.6 1.4-1.6 11 0 9.5 0 9.8 1.5 11l.8.7h31.4l.8-.7c1.5-1.3 1.5-1.5 1.5-11 0-9.6-.1-9.8-1.6-11-.7-.5-1.2-.5-5.9-.6l-4.9-.1v-5.6h4.4c5.2 0 4.7.3 7.6-4.3.7-1.1 1.4-2.1 2.2-3.1.1 0 1.4 9.4 2.9 20.9 1.5 11.5 2.9 21.3 3 21.8.3 1.3 1.1 1.9 2.3 1.9 1.5 0 2.4-1 2.3-2.6 0-.7-1.3-10.4-2.7-21.7-.9-6.9-1.8-13.8-2.6-20.6.1-.1 4.6-.2 10.2-.2 9.8 0 10.1 0 11.2-.5 1.6-.7 2.5-2.2 2.6-4.1.3-2.5-1.3-4.8-3.8-5.3l-1.2-.3-.3-5.1-1-.1c-2.3-.1-2.2.1-2.2-3.9 0-2-.1-3.8-.3-4.1-.2-.4-.5-.5-1.4-.5-.6 0-1.2.1-1.4.3-.2.2-.3 1.5-.3 3.9 0 2.5-.1 3.7-.3 3.9-.2.2-.9.3-1.7.3-1.6 0-1.7 0-1.7 3.1v2.3H46.5v-2.3c0-3.1 0-3.1-1.7-3.1-.8 0-1.5-.1-1.6-.3-.2-.2-.3-1.5-.3-3.9 0-2.5-.1-3.7-.3-3.9-.2-.2-.8-.3-1.4-.3-.9-.1-1.2 0-1.4.4zm42.8 40.1c2.9.9 5.2 3.2 6.2 6.2.4 1.5.3 4.2-.3 5.8-.9 2.1-2.5 3.9-4.6 4.9-1.3.6-1.8.7-3.9.7-2.2 0-2.6-.1-3.9-.7-2-1.1-3.6-2.8-4.6-4.9-.6-1.6-.7-4.2-.3-5.8.9-2.9 3.2-5.2 6.1-6.2 1.7-.6 3.6-.6 5.3 0z"/><path d="M77.8 89.9c-2 .9-3.5 3.7-3.1 5.7a5.47 5.47 0 008 3.7c2-1.2 3-3.5 2.4-5.8-.6-2.4-2.7-4.1-5.2-4.1-.5.1-1.5.3-2.1.5zM50.1 45.7c-3.9.7-4.5 1.1-4.5 3.5 0 1.8.5 2.4 2.3 2.9 1.5.5 7.2.5 10.5.1 6.9-.8 11.3-2.5 9.7-3.8-1.3-.9-4.9-1.9-9.1-2.4-2.5-.3-8-.5-8.9-.3zM103.5 45.8c-6.3.6-11.9 2.1-11.9 3.2 0 1.7 7.8 3.5 15.6 3.5 5.8 0 7.2-.6 7.2-3.3 0-1.8-.6-2.6-2.4-3.1-1.6-.5-5.6-.6-8.5-.3zM126.8 45.8c-1.8.2-3 .8-3.4 1.5-.4.8-.3 2.9.2 3.6.9 1.3 1.7 1.5 7.1 1.5 3.7 0 5.8-.1 7.9-.5 3.5-.6 6.6-1.5 7.2-2.2.5-.5.5-.5-.2-1.2-1.3-1.1-6-2.2-11.9-2.7-3.7-.3-4.7-.3-6.9 0z"/></svg><svg viewBox="0 0 11 11" id="cross" xmlns="http://www.w3.org/2000/svg"><path d="M11 1l-1-1-4.5 4.5L1 0 0 1l4.5 4.5L0 10l1 1 4.5-4.5L10 11l1-1-4.5-4.5L11 1z"/></svg><svg viewBox="0 0 47 31" id="delivery" xmlns="http://www.w3.org/2000/svg"><path d="M40.2 7.2c-.3-.4-.7-.6-1.2-.6h-8.3V1.5C30.7.7 30 0 29.2 0H1.5C.7 0 0 .7 0 1.5S.7 3 1.5 3h26.2v21.7H15.8c-.6-1.9-2.4-3.3-4.5-3.3-2.6 0-4.8 2.2-4.8 4.8S8.7 31 11.3 31c2.1 0 3.9-1.4 4.5-3.3h13.4c.8 0 1.5-.7 1.5-1.5V9.6h7.6l5.7 7.3v7.9h-2.2c-.6-1.9-2.4-3.3-4.5-3.3-2.6 0-4.8 2.2-4.8 4.8 0 2.3 1.6 4.2 3.8 4.7h1.9a4.7 4.7 0 003.6-3.2h3.7c.8 0 1.5-.7 1.5-1.5v-9.9c0-.4-.1-.7-.3-1l-6.5-8.2zM11.3 28c-1 0-1.8-.8-1.8-1.8s.8-1.8 1.8-1.8 1.8.8 1.8 1.8-.9 1.8-1.8 1.8zm26.1 0c-1 0-1.8-.8-1.8-1.8s.8-1.8 1.8-1.8 1.8.8 1.8 1.8-.9 1.8-1.8 1.8z"/><path d="M20.9 8.1c0-.8-.7-1.5-1.5-1.5H4.8c-.8 0-1.5.7-1.5 1.5S4 9.6 4.8 9.6h14.6c.8 0 1.5-.7 1.5-1.5zM1.5 16.2h14.7c.8 0 1.5-.7 1.5-1.5s-.7-1.5-1.5-1.5H1.5c-.8 0-1.5.7-1.5 1.5s.7 1.5 1.5 1.5z"/></svg><svg viewBox="0 0 10 10" id="dir" xmlns="http://www.w3.org/2000/svg"><path d="M5 10L0 0h10"/></svg><svg viewBox="0 0 2 12" id="i" xmlns="http://www.w3.org/2000/svg"><path d="M2 0H0v2h2V0zM2 4H0v8h2V4z"/></svg><svg viewBox="0 0 15 12" id="letter" xmlns="http://www.w3.org/2000/svg"><path d="M7.6 8c-.4 0-.6-.1-1-.3L0 4v7c0 .6.4 1 .9 1h13.2c.6 0 .9-.4.9-1V4L8.5 7.7c-.4.2-.6.3-.9.3zm6.5-8H.9C.4 0 0 .5 0 1v.8L7.5 6 15 1.8V1c0-.5-.4-1-.9-1z"/></svg><svg viewBox="0 0 40 40" id="link" xmlns="http://www.w3.org/2000/svg"><path d="M11.6 1.7v5c0 1 .8 1.7 1.7 1.7 1 0 1.7-.8 1.7-1.8V2.1C15.1 1 14.7.3 13.7 0h-.8c-.8.3-1.3.8-1.3 1.7zM1.6 15h5.1c.7 0 1.2-.3 1.5-1 .5-1.1-.3-2.3-1.6-2.3H2.1c-1 0-1.7.3-2.1 1.3v.7c.2.8.7 1.3 1.6 1.3zM38.4 25h-5.1c-.7 0-1.3.6-1.5 1.3-.3 1.1.5 2 1.7 2h4.4c1 .1 1.7-.3 2.1-1.3v-.7c-.3-.7-.7-1.3-1.6-1.3zM28.4 37.8v-4.4c0-1.1-.8-1.8-1.7-1.8-1 0-1.7.8-1.7 1.8v4.5c-.1 1.1.3 1.8 1.3 2.1.3 0 .5 0 .8-.1 1-.3 1.3-1.1 1.3-2.1zM25.6 2.4l-2.7 2.7C21.9 6 21 7 20 8c-.7.7-.7 1.6-.1 2.3.7.7 1.8.7 2.5 0L28 4.7c1-1 2.1-1.6 3.5-1.6 2.3 0 3.9 1.3 4.8 3.3.8 1.7.4 3.7-1.1 5.2-3.5 3.5-7 7.1-10.6 10.6-.9 1-2.1 1.5-3.4 1.5s-2.4-.6-3.4-1.5c-.4-.3-.9-.6-1.4-.5-.7.1-1.2.4-1.4 1.1-.3.7-.1 1.3.4 1.8 1.6 1.6 3.6 2.3 5.9 2.3 2.2.1 4.4-.8 5.9-2.5 3.3-3.3 6.6-6.7 10-10a8.9 8.9 0 001.6-9.9c-2.4-5.1-9.6-5.7-13.2-2.1z"/><path d="M19.1 32.9c.3-.4.5-.8.4-1.3-.1-.7-.5-1.2-1.1-1.4-.7-.3-1.3-.1-1.8.4l-4.7 4.7c-2.1 2-4.8 2.1-6.9.1-.2-.1-.3-.3-.5-.5-1.8-2-1.7-5 .3-6.8 2.2-2.1 4.3-4.3 6.5-6.5l3-3c1.2-1.1 2.5-1.7 4.2-1.4 1.1.2 1.9.8 2.7 1.5.4.4.8.6 1.4.5.7-.1 1.2-.5 1.4-1.1.2-.7.1-1.3-.4-1.8a7.68 7.68 0 00-5.4-2.3c-2.8 0-4.8.9-6.5 2.6l-9 9a8.3 8.3 0 00-2.4 7.7c.6 3.1 2.3 5.2 5.2 6.2.8.3 1.6.4 2.4.5h1.5c1.6-.1 3.2-.8 4.6-2 1.8-1.6 3.4-3.4 5.1-5.1zM6.2 3.8c-.4-.3-.7-.5-1.2-.5-.7 0-1.3.4-1.5 1-.3.7-.2 1.3.4 1.8 1.6 1.7 3.3 3.4 5 5.1.6.6 1.7.6 2.3 0 .6-.7.7-1.7 0-2.4-1.6-1.7-3.3-3.3-5-5zM30 28.3c-.7.1-1.2.4-1.4 1-.3.6-.2 1.3.3 1.8 1.6 1.7 3.3 3.3 5 5 .6.6 1.7.6 2.3 0 .6-.6.7-1.6 0-2.3-1.6-1.7-3.3-3.3-5-5-.4-.3-.7-.5-1.2-.5z"/></svg><svg viewBox="0 0 48 55" id="map-pin" xmlns="http://www.w3.org/2000/svg"><path d="M24.1 16.56a5.7 5.7 0 00-5.6 5.8c0 .6.1 1.1.2 1.6.1.4.3.9.5 1.2.8 1.7 2 3.3 4.3 6 .2.2.7.6 1.3-.1 4.8-5.4 4.8-8.1 4.8-8.1v-.7c.1-3.1-2.4-5.7-5.5-5.7z"/><path d="M24 .36c-13.3 0-24 10.7-24 24 0 11.9 8.7 21.8 20.1 23.7l4 6.3 4-6.4A23.88 23.88 0 0048 24.36c0-13.3-10.7-24-24-24zm9 22.4s.1 4.3-8.1 13c-.8.8-1.6 0-1.6 0-3.8-4.4-5.8-6.9-7.1-9.6-.3-.6-.6-1.2-.8-1.9-.2-.8-.4-1.6-.4-2.5 0-5 4.1-9.1 9.1-9.1s9.1 4.1 9.1 9.1c-.1.3-.2.6-.2 1z"/></svg><svg viewBox="0 0 16 16" id="minus" xmlns="http://www.w3.org/2000/svg"><path d="M0 7h16v2H0z"/></svg><svg viewBox="0 0 16 16" id="plus" xmlns="http://www.w3.org/2000/svg"><path d="M16 7H9V0H7v7H0v2h7v7h2V9h7V7z"/></svg><svg viewBox="0 0 16 16" id="search" xmlns="http://www.w3.org/2000/svg"><path d="M15.7 14.3l-3.1-3.1C13.5 10 14 8.6 14 7c0-3.9-3.1-7-7-7S0 3.1 0 7s3.1 7 7 7c1.6 0 3-.5 4.2-1.4l3.1 3.1c.2.2.4.3.7.3.6 0 1-.4 1-1 0-.2-.1-.5-.3-.7zM2 7c0-2.8 2.2-5 5-5s5 2.2 5 5-2.2 5-5 5-5-2.2-5-5z"/></svg><svg viewBox="0 0 180 195" id="service-1" xmlns="http://www.w3.org/2000/svg"><path fill="#fff" d="M114 54.6c8.1 0 14.9-5.5 16.9-13l5.5.8c1.2.1 2.3-.7 2.4-1.9.1-1.1-.6-2.2-1.8-2.4l-5.6-.8v-.7s-.5-6.5-1.1-9.2c-.6-2.7-2.5-3.3-2.5-3.3-7.4-1.6-14.9-2.4-22.4-2.4-2.6 0-3.2 1.3-3.2 1.3L99 28l-.2.4v.1c-4.8 8.3-2 19 6.3 23.9 2.8 1.4 5.8 2.2 8.9 2.2zM152.4 93.9l-26.7-2.2-9.2-21.1s-.5-2.8-6-8.5-16.8-3.4-16.8-3.4-23.9 4.5-31.8 6.3c-7.9 1.8-8.2 9.9-8.2 9.9l-.7 4.5-15.2-2.9c-1.6-.3-3.2.7-3.5 2.3l-7.4 38.3c-.3 1.6.7 3.2 2.4 3.5l51.2 9.9h.3c-.7.1-1.3 0-1.3 0l-9.4-1.8-3.1 17.1-23.6 20.4a7.35 7.35 0 00-1.2 10.4c1.4 1.8 3.6 2.8 5.9 2.8 2 0 3.8-.8 5.2-2.1 0 0 27.7-22 29.6-23.6 1.8-1.5 2.8-3.9 2.8-3.9s4.5-13.9 5.8-16.9c.8-2 4.9-1.1 4.9-1.1l22.9 8.6 7.6 29.1c.5 4.1 4.2 6.9 8.3 6.4 4.1-.5 6.9-4.2 6.4-8.3 0-.3-.1-.5-.1-.8-.8-5-4.6-27.1-5.6-31.8-1.1-5.4-4.6-6.9-4.6-6.9s-21.3-11.6-22.7-12.3c-1.4-.8-1.1-2.8-1.1-2.8l3.9-14.3 2.8 5.8s1.6 3.3 4.1 3.4l33.4.8c4.1 0 7.4-3.4 7.4-7.5 0-3.8-2.9-6.9-6.7-7.3zM80.9 78.6l-1.8 5.9 9.9 1.9-20.2-3.9.5-2.5 11.6-1.4zm-2.2 45.5l-45.3-8.8L39.7 83l12.5 2.4L50.6 97l-.6 4.4v.2c-.5 4.1 2.4 7.8 6.4 8.3a7.44 7.44 0 008.3-8.3l2.9-13.2L85 91.7l-6.3 32.4zM45.9 32.8h38a2 2 0 002-2 2 2 0 00-2-2h-38a2 2 0 00-2 2c0 1.2.9 2 2 2zM58.9 38.8a2 2 0 00-2 2c0 1.1.9 2 2 2h23a2 2 0 002-2 2 2 0 00-2-2h-23z"/><path fill="#3a3a3a" d="M107.9 48.6c8.1 0 14.9-5.5 16.9-13l5.5.8h.3c1.2 0 2.1-1 2.1-2.2 0-1-.8-1.9-1.8-2.1l-5.5-.8v-.7s-.4-6.5-1.1-9.2c-.6-2.7-2.5-3.3-2.5-3.3-7.4-1.6-14.9-2.4-22.4-2.4-2.6 0-3.2 1.3-3.2 1.3L93 22l-.2.4c-4.8 8.3-2 19 6.3 23.9 2.7 1.4 5.8 2.3 8.8 2.3zM146.3 87.9l-26.7-2.2-9.3-21.1s-.5-2.8-6-8.5c-5.6-5.7-16.8-3.4-16.8-3.4S63.7 57.2 55.8 59c-7.9 1.8-8.2 9.9-8.2 9.9l-3.1 22-.6 4.4v.2c-.5 4.1 2.3 7.8 6.4 8.3 4.1.5 7.8-2.3 8.3-6.4.1-.7.1-1.3 0-2L63.4 74 75 72.6l-1.8 5.9 9.9 1.9c1.6.3 2.7 1.9 2.4 3.5L78 122.2c-.3 1.4-1.5 2.4-2.9 2.4h-.2c-.7.1-1.3 0-1.3 0l-9.4-1.8-3.2 17-23.6 20.4a7.35 7.35 0 00-1.2 10.4c1.4 1.8 3.6 2.8 5.9 2.8 2 0 3.8-.8 5.2-2.1 0 0 27.7-22.1 29.6-23.6 1.8-1.5 2.8-3.8 2.8-3.8s4.5-13.9 5.8-16.9c.8-2 4.9-1.1 4.9-1.1l22.9 8.6 7.6 29.1c.5 4.1 4.2 6.9 8.3 6.4 4.1-.5 6.9-4.2 6.4-8.3 0-.3-.1-.5-.1-.8-.8-5-4.6-27.1-5.6-31.8-1.1-5.4-4.6-6.9-4.6-6.9l-22.6-12.3c-1.4-.8-1.1-2.8-1.1-2.8l3.9-14.3 2.8 5.8s1.6 3.3 4.1 3.4l33.3.8c4.1 0 7.4-3.4 7.4-7.5 0-3.9-2.9-7.1-6.8-7.4z"/><path fill="#f0c42e" d="M74.8 125h.2c1.4 0 2.7-1 2.9-2.4l7.4-38.2c.3-1.6-.7-3.2-2.4-3.5L62.7 77l-1.3 5.9 17.4 3.4-6.3 32.4-45.3-8.8 6.3-32.3L46 80l.8-6-15.2-2.9c-1.6-.3-3.2.7-3.5 2.4l-7.4 38.2c-.3 1.6.7 3.2 2.4 3.5l51.2 9.9c.3-.1.4-.1.5-.1z"/><path fill="#f0c52e" d="M79.9 24.8a2 2 0 01-2 2h-38a2 2 0 01-2-2c0-1.1.9-2 2-2h38a2 2 0 012 2zM77.8 34.8a2 2 0 01-2 2h-23a2 2 0 01-2-2c0-1.1.9-2 2-2h23a2 2 0 012 2z"/></svg><svg viewBox="0 0 180 195" id="service-2" xmlns="http://www.w3.org/2000/svg"><path fill="#fff" d="M82.2 174.6c-.1-.1-10.5-13-12.6-15.8a7.06 7.06 0 00-5.6-2.7c-2.6 0-4.8 1.2-5.5 1.6l-5.5 2.7c-1.8-.5-5.6-1.9-9.3-6.3-3.3-3.8-3.3-9-3.1-11.1l5.9-5.9c2.4-2.1 3-5.7 1.2-8.4l-.2-.3L32.9 110c-1-1.3-2.6-2-4.2-1.9-2.9 0-5.9 2-6.8 2.6-10.9 7.8-11.6 14.6-11.6 15.3v.4l.1.4c6.4 35.7 26 51.1 35.5 58.6 1.2.9 2.1 1.7 2.9 2.3 4.6 4 10.4 6.3 16.5 6.4 2.4 0 4.5-.4 6.1-1.2 4.4-2.1 9.4-8 10.9-9.8 2.5-3.1 1.3-6.6.2-8.2l-.3-.3zm-13.9 11.9c-.5.2-1.6.5-3.1.5-4.4-.1-8.6-1.7-11.9-4.6-.9-.8-1.9-1.6-3.1-2.6-8.7-6.8-26.7-21-32.8-53.7.3-1 1.8-4.9 8.6-9.8.6-.4 1.5-.9 2.1-1.1l13.5 17-7.5 7.5-.2 1.1c-.1.4-1.9 10.4 4.5 17.9 6.3 7.4 13.3 8.7 14.6 8.9l1.1.2 7.6-3.8.2-.1c.7-.4 1.4-.6 2.2-.6 4.1 5.2 8.3 10.5 12.5 15.6-2.6 3-6.2 6.6-8.3 7.6zM142.4 65.8c5.5-5.2 7.2-12 5-20.8-.3-1.3-1.7-2.2-3-1.8-.4.1-.8.3-1.1.6l-8.2 7.4c-1.4-.8-3.7-2.5-4.5-5.3l6.8-6.7c.9-.9 1-2.5.1-3.4l-.2-.2c-.2-.2-.4-.4-.7-.5-2.7-1.4-5.8-2.1-8.8-2.1-4.7 0-8.9 1.9-12 5.6-6 6.9-4.6 15-3.5 18.5l-3.5 3.5-10.3-9.2 4.7-3.3-20-13.7-10.6 10.3 13.7 20 3.3-4.7 9.2 10.3-3.3 3.3c-2.2-.7-4.4-1-6.7-1.1-5.4 0-10.5 2.3-14 6.4-.3.3-6.6 8.2-2.8 18.6.5 1.3 1.9 2 3.2 1.5.3-.1.6-.3.8-.5l8.3-7.3c1.3.6 3.6 2.1 4.7 5.9l-7.4 7.5c-1 1-1 2.6 0 3.5.3.3.7.6 1.2.7.1 0 2.7.6 6.2.6 6.8 0 12.1-2.3 15.3-6.6 2.8-3.8 4.2-8.4 4-13.1l16.2 16.2.2.2c2.1 1.7 4.7 2.7 7.5 2.7 2.2 0 4.6-.7 6.8-2.8l5.5-5.5.1-.1c5-5.4 2.3-11.7.1-14.3l-16.9-17c1 .1 2.2.2 3.3.2 4.9.1 8.7-1.1 11.3-3.5zM89.1 52l-2.7 4L79 45.3l4.7-4.7 10.6 7.3-3.9 2.7 14.8 13.3-4.1 4.1 1.2-1.2L89.1 52zm13.5 33.5c.1.3 2.6 7.8-2.3 14.5-2.8 3.8-7.8 4.5-11.4 4.5l4.7-4.8c.6-.6.8-1.4.7-2.2-1.8-10.1-9.8-11.4-10.1-11.5-.7-.1-1.5.1-2 .6L76 92c-.3-3.5.7-7.1 2.8-9.9 2.5-2.9 6.2-4.6 10.1-4.6 3.5 0 6.2 1.2 6.3 1.2 1 .4 2.1.2 2.8-.5l19-19c.7-.7.9-1.8.5-2.8 0-.1-3.5-8.3 2.2-14.9 2-2.5 5-3.9 8.2-3.8 1.2 0 2.4.2 3.4.4l-5 5c-.6.5-.8 1.3-.7 2.1 1 8.3 9 11.1 9.3 11.2.9.3 1.8.1 2.5-.5l6.1-5.4c.4 4.9-1 8.5-4.3 11.6-2 1.9-5.4 2.3-7.8 2.3-3.7 0-6.9-.9-7-.9-.9-.2-1.8 0-2.4.6l-18.5 18.7c-1 .8-1.2 1.8-.9 2.7zm5.5 1.8zm32.9 9.8l-5.5 5.5c-3.3 3-6.9.4-7.6-.1l-18.6-18.6 14.9-15.1-2 2.1 18.7 18.7c.5.5 3.1 4.2.1 7.5zm-16-28.2z"/><path fill="#fff" d="M108.7 6C72.3 6 42.8 35.6 42.8 72c0 33.1 24.6 61 57.3 65.3v26.2s57.4-21.2 72-73.6l.2-.8.3-1.3.2-.8a66 66 0 00-49.1-79.3 68.3 68.3 0 00-15-1.7zM166 85.4v.2l-.1.5-.3 1.2-.1.4-.1.3c-5.6 20-18.5 37.7-38.5 52.4-6.2 4.6-12.8 8.7-19.7 12.2v-21.5l-6.1-.8a58.99 58.99 0 01-51.3-58.4c0-32.5 26.4-58.9 58.9-58.9 32.6.1 58.9 26.5 58.9 59.1 0 4.5-.6 8.9-1.6 13.3z"/><path fill="#3a3a3a" d="M59.1 188c-6.1-.1-12-2.3-16.5-6.4-.7-.6-1.7-1.4-2.9-2.3-9.4-7.4-29-22.8-35.5-58.6l-.1-.4v-.4c.1-.8.8-7.6 11.6-15.3.9-.6 3.9-2.6 6.8-2.6 1.7 0 3.2.7 4.2 1.9l14.7 18.5.2.3c1.7 2.7 1.2 6.3-1.3 8.4l-5.9 5.9c-.2 2.1-.2 7.3 3.1 11.1 3.7 4.3 7.5 5.8 9.3 6.3l5.5-2.8c.7-.4 2.9-1.6 5.5-1.6 2.3 0 4.3.9 5.6 2.7 4.2 5.3 8.4 10.5 12.6 15.8l.2.2c1.1 1.6 2.3 5.1-.2 8.2-1.4 1.8-6.5 7.7-10.9 9.8-1.5.9-3.6 1.3-6 1.3zm-47.9-67.9c6.1 32.7 24.1 46.8 32.8 53.7 1.2 1 2.3 1.8 3.1 2.6 3.3 2.9 7.5 4.5 11.9 4.6 1.5 0 2.6-.3 3.1-.5 2.1-1 5.7-4.6 8.3-7.7a938.7 938.7 0 01-12.5-15.6h-.1c-.7.1-1.4.3-2.1.6l-.2.1-7.7 3.8-1.1-.2c-1.3-.2-8.3-1.5-14.6-8.9-6.4-7.5-4.6-17.5-4.5-17.9l.2-1.1 7.5-7.5-13.5-17c-.6.2-1.5.7-2.1 1.1-6.7 5-8.2 9-8.5 9.9z"/><path fill="#f0c42e" d="M82.9 103.5c-3.4 0-6.1-.6-6.2-.6-1.3-.3-2.2-1.7-1.9-3 .1-.5.3-.9.7-1.2l7.4-7.5c-1-3.8-3.3-5.3-4.7-5.9L70 92.6a2.51 2.51 0 01-4-1c-2.3-6.3-1.3-13.3 2.8-18.6 3.5-4.1 8.6-6.4 14-6.4 2.8 0 5.2.6 6.7 1.1l16.8-16.8c-1-3.4-2.5-11.5 3.5-18.5 3-3.6 7.4-5.6 12-5.6 4.8 0 8.7 2 8.8 2.1.3.1.5.3.7.5l.2.2c.9 1 .8 2.5-.1 3.4l-6.8 6.7c.8 2.9 3 4.5 4.5 5.3l8.2-7.4c1-.9 2.6-.8 3.5.2.3.3.5.7.6 1.1 2.1 8.8.5 15.6-5 20.8-2.6 2.4-6.3 3.6-11.2 3.6-2.8 0-5.3-.4-6.8-.7l-16.5 16.6c.7 3.2 1.6 10.6-3.4 17.6-3.4 4.5-8.7 6.7-15.6 6.7zm-.2-5c3.7 0 8.6-.7 11.4-4.5 4.9-6.8 2.4-14.2 2.3-14.5-.3-.9-.1-1.9.6-2.6l18.5-18.7c.6-.6 1.6-.9 2.4-.7 0 0 3.3.9 7 .9 2.5 0 5.8-.4 7.8-2.3 3.3-3.1 4.7-6.8 4.3-11.6l-6 5.4c-.7.6-1.6.8-2.5.5-.3-.1-8.3-2.9-9.3-11.2-.1-.8.2-1.5.7-2.1l5.1-5c-1-.2-2.1-.4-3.4-.4-3.3 0-6 1.3-8.2 3.8-5.7 6.5-2.2 14.8-2.2 14.9.4.9.2 2-.5 2.8l-19 19c-.7.8-1.8 1-2.7.6-2-.8-4.1-1.2-6.3-1.2-4 0-7.4 1.5-10.1 4.6-.3.4-3.3 4.4-2.8 9.9l6.2-5.4c.6-.5 1.3-.7 2-.6.3.1 8.3 1.4 10.1 11.5.1.8-.1 1.6-.7 2.2l-4.7 4.7z"/><path fill="#3a3a3a" d="M83.4 54l9.2 10.3 3.5-3.5L82.9 46l-2.7 4-7.3-10.6 4.7-4.7L88.2 42l-3.9 2.7L99.1 58l3.5-3.5-10.3-9.2L97 42 77 28.1 66.4 38.7l13.7 20c.1 0 3.3-4.7 3.3-4.7zM121.7 63.3c-1.2-.1-2.4-.3-3.5-.5l-2 2.1 18.7 18.7c.5.6 3.1 4.3.1 7.6l-5.5 5.5c-3.3 3-6.9.4-7.6-.1l-18.6-18.7-1.6 1.6c.2 1.1.5 2.6.6 4.5l16.2 16.2.2.2c2.1 1.7 4.7 2.7 7.4 2.7 2.2 0 4.6-.7 6.9-2.8l5.5-5.5.1-.1c5-5.4 2.3-11.7.1-14.3l-17-17.1z"/><path fill="#3a3a3a" d="M102.5 7c32.6.1 58.9 26.5 58.9 59.1 0 4.5-.5 9-1.5 13.3v.1c-.1.6-.3 1.1-.4 1.7l-.1.4-.1.3c-5.6 20.1-18.5 37.7-38.5 52.4-6.2 4.6-12.8 8.7-19.7 12.2V125l-6.1-.8a58.99 58.99 0 01-51.3-58.4C43.6 33.4 70 7 102.5 7zm0-7C66.1 0 36.6 29.6 36.7 66c0 33.1 24.6 61 57.3 65.3v26.2s57.4-21.2 72-73.6l.2-.8.3-1.3.2-.8a66 66 0 00-49.1-79.3C112.7.6 107.6 0 102.5 0z"/></svg><svg viewBox="0 0 180 195" id="service-3" xmlns="http://www.w3.org/2000/svg"><path fill="#fff" d="M153.3 87.1c8.1 0 14.8-6.6 14.8-14.8s-6.6-14.8-14.8-14.8-14.8 6.6-14.8 14.8 6.6 14.8 14.8 14.8zM101.1 143L94 160.9l-22.8 14.9a7.11 7.11 0 00-2.8 9.7c1.9 3.5 6.3 4.7 9.7 2.8.2-.1.4-.3.7-.4 3.8-2.4 22.3-14.1 25.5-15.9 3.5-2 4.1-5.1 4.1-5.1l4.9-16-5.8-2.6c-5.6-2.6-6.4-5.3-6.4-5.3z"/><path fill="#fff" d="M151.3 145s-1.2-3.8-4.6-5.2c-3.4-1.3-18.1-7.8-18.1-7.8l15.4-25.6s3.8-9-.3-13.4c-4.2-4.4-13.8-9.8-13.8-9.8h-7.5l15.8-26.8c3.3-5.7 1.4-13.1-4.3-16.4L84.6 10.9c-5.7-3.3-13.1-1.5-16.4 4.2L21.1 95c-3.3 5.7-1.4 13.1 4.3 16.4l49.4 29.1c5.7 3.3 13 1.4 16.4-4.2l22.9-38.9h8.1l-14.8 26.2s-5.1 9.2-.3 14.3c4.2 4.4 12.7 6.9 12.7 6.9l17.3 6.5 5.1 31.3c.7 3.9 4.4 6.5 8.3 5.8a7.1 7.1 0 005.9-7.5l-5.1-35.9zM30 103.7c-1.4-.9-1.9-2.7-1.1-4.1L76 19.8c.9-1.4 2.7-1.9 4.1-1.1l11.5 6.8-50.1 85-11.5-6.8zm53.5 28.1c-.9 1.4-2.7 1.9-4.1 1.1l-30.1-17.8 50.1-85 30.1 17.8c1.4.8 1.9 2.7 1.1 4.1L112 83.3h-8.8L83.3 97.7l-1.2.9c-2.9 2.7-3 7.3-.3 10.1 2.4 2.6 6.3 3 9.3 1l.1-.1c.2-.1.3-.3.5-.4l9.7-7.8-17.9 30.4z"/><path fill="#f0c42e" d="M61.2 9.4l-47 79.9c-3.3 5.7-1.4 13 4.2 16.4l49.4 29.1c5.7 3.3 13 1.4 16.4-4.2l47-79.8c3.4-5.7 1.5-13.1-4.2-16.4L77.7 5.2c-5.8-3.3-13.1-1.4-16.5 4.2zM21.9 93.8L69 14c.9-1.4 2.7-1.9 4.1-1.1l11.5 6.8-50.1 85L23 97.9c-1.4-.8-1.9-2.6-1.1-4.1zm101.6-47.6l-47 79.8c-.9 1.4-2.7 1.9-4.1 1.1l-30.1-17.8 50.1-85 30.1 17.8c1.4.8 1.8 2.7 1 4.1z"/><path fill="#3a3a3a" d="M147.3 81.3c8.1 0 14.8-6.6 14.8-14.8s-6.6-14.8-14.8-14.8c-8.1 0-14.8 6.6-14.8 14.8s6.6 14.8 14.8 14.8zM93.9 137.3l-7.1 17.9L64 170c-3.4 2-4.6 6.3-2.6 9.8s6.3 4.6 9.8 2.6c.2-.1.3-.2.5-.3 3.8-2.4 22.3-14.1 25.5-15.9 3.5-2 4.1-5.1 4.1-5.1l4.9-16-5.8-2.6c-5.8-2.6-6.5-5.2-6.5-5.2zM144.1 139.2s-1.2-3.8-4.6-5.2-18.1-7.8-18.1-7.8l15.4-25.6s3.8-9-.3-13.4-13.8-9.8-13.8-9.8H96L76.1 91.9c-.4.3-.9.6-1.2.9-2.9 2.7-3 7.3-.3 10.1 2.4 2.6 6.3 3 9.3 1l.1-.1.5-.4 14.8-11.9H115l-14.8 26.2s-5.1 9.2-.3 14.2c4.2 4.4 12.7 6.9 12.7 6.9l17.3 6.5 5.1 31.3c.7 3.9 4.4 6.5 8.3 5.8a7.1 7.1 0 005.9-7.5l-5.1-35.7z"/></svg><svg viewBox="0 0 18 18" id="social-facebook" xmlns="http://www.w3.org/2000/svg"><path d="M11 3h2.5V0h-3.4C7.3 0 6.5 1.7 6.5 4.2V6h-2v3h2v9h3V9h3.3l.6-3H9.5V4.5c0-.8.3-1.5 1.5-1.5z"/></svg><svg viewBox="0 0 18 18" id="social-instagram" xmlns="http://www.w3.org/2000/svg"><path d="M15.7 2.3c-.9-.9-2-1.3-3.4-1.3H5.7C2.9 1 1 2.9 1 5.7v6.6c0 1.4.4 2.6 1.4 3.4.9.9 2 1.3 3.3 1.3h6.6c1.4 0 2.6-.4 3.4-1.3.8-.9 1.3-2 1.3-3.4V5.7c0-1.4-.4-2.6-1.3-3.4zM9 13.1c-2.2 0-4.1-1.8-4.1-4.1S6.8 4.9 9 4.9s4.1 1.8 4.1 4.1-1.9 4.1-4.1 4.1zm4.6-7.4c-.7 0-1.3-.5-1.3-1.3s.5-1.3 1.3-1.3c.7 0 1.3.6 1.3 1.3s-.6 1.3-1.3 1.3z"/></svg><svg viewBox="0 0 18 18" id="social-twitter" xmlns="http://www.w3.org/2000/svg"><path d="M11.3 2.2c1.6-.5 2.8.3 3.4 1.1.5-.2 1.2-.4 1.8-.6 0 .6-.3 1.2-.9 1.6.9.2 1.4-.4 1.4-.4-.1.9-1 1.7-1.5 1.9-.2 6.2-3 10.3-9.5 10.2h-.4c-.3 0-3.9-.4-4.6-1.8 2.1.2 3.6-.4 4.4-1.1-.8-.3-2.6-.4-2.8-2.8.3.2.5.3 1.2.2C2.6 9.7 1.3 9 1.4 7c.3.3 1 .5 1.3.4-.6-.2-1.9-3.1-.9-4.5 1.7 1.7 3.5 3.4 6.7 3.5.3-2.2 1.1-3.5 2.8-4.2z"/></svg><svg viewBox="0 0 10 12" id="sort" xmlns="http://www.w3.org/2000/svg"><path d="M6 0H4v12h2V0zM2 4H0v8h2V4zM10 3H8v9h2V3z"/></svg><svg viewBox="0 0 18 16" id="thumbs-up" xmlns="http://www.w3.org/2000/svg"><path d="M9.9 6.1h6.4c.7 0 1.2.3 1.5.9.2.4.2.8 0 1.3-.6 1.9-1.3 3.8-1.9 5.7-.1.3-.2.6-.3.8-.2.7-.8 1.1-1.5 1.1H7.7c-.3 0-.5 0-.8-.1-1-.3-1.8-1.2-1.8-2.3V6.3c0-.2 0-.3.1-.4C6.9 4 8.5 2.1 10.1.1c0-.1.1-.1.2-.1 1.1.6 1.7 2 1.1 3.2-.4.9-.9 1.8-1.3 2.6-.1.1-.1.2-.2.3zM3.9 10.7V15c0 .2-.1.2-.2.2H.2c-.2 0-.2 0-.2-.2V6.3c0-.2.1-.2.2-.2h3.5c.2 0 .2.1.2.2v4.4z"/></svg><svg viewBox="0 0 10 11" id="tick" xmlns="http://www.w3.org/2000/svg"><path d="M10 .36l-6.9 6.6-3.1-3v3.3l3.2 3.1 6.8-6.7V.36z"/></svg><svg viewBox="0 0 13 13" id="user" xmlns="http://www.w3.org/2000/svg"><path d="M0 12.36h13c-.2-2.6-2.1-4.8-4.7-5.5 1-.6 1.7-1.7 1.7-3 0-1.9-1.6-3.5-3.5-3.5S3 1.96 3 3.86c0 1.3.7 2.4 1.7 3-2.6.7-4.5 2.9-4.7 5.5z"/></svg></svg>