<svg xmlns="http://www.w3.org/2000/svg" viewBox="0 0 160 160"><g><path d="M106.5 63.2H105v-4.6c0-5-4-9.1-9.1-9.2H61.1c-5 0-9.1 4.1-9.1 9.2v42.9c0 5 4 9.1 9.1 9.2h34.8c5 0 9.1-4.1 9.1-9.2V98h1.5c.4 0 .8-.3.8-.8V83.5c0-.4-.3-.8-.7-.8H105v-8.8h1.5c.8 0 1.5-.7 1.5-1.5v-7.6c0-.9-.7-1.6-1.5-1.6zm-20.4-3.1a5.36 5.36 0 0 1 0 10.7c-2.9 0-5.3-2.4-5.3-5.3 0-3 2.3-5.4 5.3-5.4zm-15.1 0a5.36 5.36 0 0 1 0 10.7c-2.9 0-5.3-2.4-5.3-5.3-.1-3 2.3-5.4 5.3-5.4-.1 0-.1 0 0 0zM57.3 80.4c0-2.9 2.4-5.3 5.3-5.3s5.3 2.4 5.3 5.4c0 2.9-2.4 5.3-5.3 5.4-2.9-.1-5.3-2.5-5.3-5.5zm13.6 19.5c-2.9 0-5.3-2.4-5.3-5.3s2.4-5.3 5.3-5.4c2.9 0 5.3 2.4 5.3 5.4a5.2 5.2 0 0 1-5.3 5.3zM72.4 80a6.04 6.04 0 1 1 12.1 0 6.06 6.06 0 1 1-12.1 0zm13.7 19.9c-2.9 0-5.3-2.4-5.3-5.3s2.4-5.3 5.3-5.4a5.36 5.36 0 0 1 0 10.7zm8.3-14.1c-2.9 0-5.3-2.4-5.3-5.4 0-2.9 2.4-5.3 5.3-5.4 2.9 0 5.3 2.4 5.3 5.4 0 3-2.4 5.4-5.3 5.4z"/><path d="M61.7 46.3h33.7c.8 0 1.4-.7 1.3-1.5L95 34c-.3-1.7-1.8-3-3.5-3h-26c-1.7.1-3.2 1.3-3.5 3l-1.6 10.8c-.2.8.4 1.5 1.3 1.5z"/><path d="M95.3 113.7H61.7c-.8 0-1.4.7-1.3 1.5L62 126c.3 1.7 1.8 3 3.5 3h26c1.7-.1 3.2-1.3 3.5-3l1.6-10.8c.1-.7-.3-1.4-1-1.5h-.3z"/></g></svg>