<svg xmlns="http://www.w3.org/2000/svg" viewBox="0 0 160 160"><path d="M97.8 38c0-.7-.6-1.5-1.3-1.5h-43c-.7 0-1.4.8-1.4 1.5v3.5h45.7V38z"/><path d="M98.7 118.3h-9.6v-10.4h-7v2.5H63.3c-.5-1.3-1.8-2.1-3.2-2.2H48a3.7 3.7 0 0 0-3.6 3.5v3c0 1.9 1.6 3.5 3.6 3.5h12c1.5 0 2.8-.9 3.3-2.3h18.8v2.3h-9.5a1 1 0 0 0-1 1v3.2c0 .5.5 1.1 1 1.1h26.1c.5 0 .9-.5.9-1.1v-3.2c0-.4-.4-.9-.9-.9z"/><path d="M105.2 48.9c-.9-3-3.6-5.1-6.8-5H51.6c-3.9 0-7.1 3.1-7.1 7v46.9c0 3.9 3.2 7.1 7.1 7.1h46.7c3.9 0 7.1-3.2 7.1-7.1V87.4a23.18 23.18 0 0 0 5.8-32.4c-1.5-2.4-3.6-4.5-6-6.1zM56.7 98.7a5.91 5.91 0 0 1 0-11.8 5.91 5.91 0 0 1 0 11.8zm6-32.6c0 .8-.6 1.4-1.4 1.4h-8.9c-.8 0-1.4-.6-1.4-1.4V51.9c0-.8.6-1.4 1.4-1.4h8.9c.8 0 1.4.6 1.4 1.4v14.2zm29.5 22.3a20.1 20.1 0 1 1 20.1-20.1c0 11-9 20-20.1 20.1z"/><path d="M92.2 80.5c6.7 0 12.2-5.5 12.2-12.2 0-6.7-5.4-12.2-12.2-12.2-6.7 0-12.2 5.5-12.2 12.2 0 6.7 5.5 12.1 12.2 12.2z"/><path d="M76 69.7a1.46 1.46 0 1 0 .3-2.9h-.2c-.8.1-1.4.8-1.3 1.6 0 .7.5 1.2 1.2 1.3z"/><path d="M108.4 69.7a1.46 1.46 0 1 0 .3-2.9h-.2c-.8.1-1.4.8-1.3 1.6 0 .7.5 1.2 1.2 1.3z"/><path d="M83.6 55.9a1.46 1.46 0 1 0 .3-2.9h-.2c-.8.1-1.4.8-1.3 1.6-.1.7.5 1.3 1.2 1.3z"/><path d="M100.9 83.4c.8 0 1.4-.6 1.4-1.4 0-.8-.6-1.4-1.4-1.4-.8 0-1.4.6-1.4 1.4 0 .8.6 1.4 1.4 1.4z"/><path d="M100.2 55.5a1.46 1.46 0 1 0 .3-2.9h-.2c-.8.1-1.4.8-1.3 1.6-.1.7.5 1.2 1.2 1.3z"/><path d="M84.3 83.8a1.46 1.46 0 1 0 .3-2.9h-.2c-.8.1-1.4.8-1.3 1.6 0 .7.5 1.3 1.2 1.3z"/></svg>