<svg xmlns="http://www.w3.org/2000/svg" viewBox="0 0 160 160"><g><path d="M125.3 51.7c.8 1.5 1.2 3.1 1.2 4.8v21.1c0 4.5-2.9 8.5-7.2 9.9-1.3 4-3.8 7.9-8.1 10.4-8.7 5.2-31.1 4.8-31.2 4.8s-22.5.4-31.2-4.8c-3.8-2.4-6.7-6-8-10.3A10.5 10.5 0 0 1 33 77.5v-21c0-1.7.4-3.3 1.1-4.7-3.7.9-7.8 2.7-7.8 6.2v30c0 10.3 11.8 24.4 53.7 24.4s53.6-14.2 53.6-24.4V58c.1-3.6-4.5-5.4-8.3-6.3z"/><path d="M46.9 86.1h65.5c5.6 0 10.1-4.5 10.1-10.1V57.6c0-5.6-4.5-10.1-10.1-10.1H46.9c-5.6 0-10.1 4.5-10.1 10.1V76c0 5.6 4.5 10.1 10.1 10.1zm63.1-29c.9 0 1.6.7 1.6 1.6 0 .9-.7 1.6-1.6 1.6-.9 0-1.6-.7-1.6-1.6.1-.9.8-1.6 1.6-1.6zm0 4.1c.9 0 1.6.7 1.6 1.6 0 .9-.7 1.6-1.6 1.6s-1.6-.7-1.6-1.6c.1-.9.8-1.6 1.6-1.6zm0 4c.9-.1 1.6.6 1.7 1.4.1.9-.6 1.6-1.4 1.7h-.3c-.9-.1-1.5-.8-1.4-1.7.1-.7.7-1.3 1.4-1.4zm0 3.8c.9 0 1.6.7 1.6 1.6 0 .9-.7 1.6-1.6 1.6-.9 0-1.6-.7-1.6-1.6.1-.9.8-1.6 1.6-1.6zm0 4.1c.9 0 1.6.7 1.6 1.6 0 .9-.7 1.6-1.6 1.6-.9 0-1.6-.7-1.6-1.6.1-.9.8-1.6 1.6-1.6zm-4-16c.9 0 1.6.7 1.6 1.6s-.7 1.6-1.6 1.6-1.6-.7-1.6-1.6.7-1.6 1.6-1.6zm0 16c.9 0 1.6.7 1.6 1.6 0 .9-.7 1.6-1.6 1.6-.9 0-1.6-.7-1.6-1.6 0-.9.7-1.6 1.6-1.6zm-4-16c.9 0 1.6.7 1.6 1.6s-.7 1.6-1.6 1.6-1.6-.7-1.6-1.6.7-1.6 1.6-1.6zm0 4.1c.9 0 1.6.7 1.6 1.6 0 .9-.7 1.6-1.6 1.6-.9 0-1.6-.7-1.6-1.6 0-.9.7-1.6 1.6-1.6zm0 4c.9-.1 1.6.6 1.7 1.4.1.9-.6 1.6-1.4 1.7h-.3c-.9-.1-1.5-.8-1.4-1.7 0-.7.6-1.3 1.4-1.4zm0 3.8c.9 0 1.6.7 1.6 1.6 0 .9-.7 1.6-1.6 1.6-.9 0-1.6-.7-1.6-1.6 0-.9.7-1.6 1.6-1.6zm0 4.1c.9 0 1.6.7 1.6 1.6 0 .9-.7 1.6-1.6 1.6-.9 0-1.6-.7-1.6-1.6 0-.9.7-1.6 1.6-1.6zm-7.7-16c.9 0 1.6.7 1.6 1.6s-.7 1.6-1.6 1.6-1.6-.7-1.6-1.6.7-1.6 1.6-1.6zm0 8.1c.9-.1 1.6.6 1.7 1.4.1.9-.6 1.6-1.4 1.7h-.3c-.9-.1-1.5-.8-1.4-1.7 0-.7.6-1.3 1.4-1.4zm0 3.9c.9-.1 1.6.6 1.7 1.4.1.9-.6 1.6-1.4 1.7h-.3c-.9-.1-1.5-.8-1.4-1.7 0-.8.6-1.4 1.4-1.4zm0 4c.9 0 1.6.7 1.6 1.6 0 .9-.7 1.6-1.6 1.6-.9 0-1.6-.7-1.6-1.6 0-.9.7-1.6 1.6-1.6zm-4-16c.9 0 1.6.7 1.6 1.6s-.7 1.6-1.6 1.6-1.6-.7-1.6-1.6.7-1.6 1.6-1.6zm0 8.1c.9-.1 1.6.6 1.7 1.4.1.9-.6 1.6-1.4 1.7h-.3c-.9-.1-1.5-.8-1.4-1.7 0-.7.6-1.3 1.4-1.4zm0 7.9c.9 0 1.6.7 1.6 1.6 0 .9-.7 1.6-1.6 1.6-.9 0-1.6-.7-1.6-1.6 0-.9.7-1.6 1.6-1.6zm-4.1-16c.9 0 1.6.7 1.6 1.6s-.7 1.6-1.6 1.6-1.6-.7-1.6-1.6.8-1.6 1.6-1.6zm0 4.1c.9 0 1.6.7 1.6 1.6s-.7 1.6-1.6 1.6c-.9 0-1.6-.7-1.6-1.6.1-.9.8-1.6 1.6-1.6zm0 4c.9 0 1.6.7 1.6 1.6s-.7 1.6-1.6 1.6c-.9 0-1.6-.7-1.6-1.6.1-.9.8-1.6 1.6-1.6zm0 7.9c.9 0 1.6.7 1.6 1.6s-.7 1.6-1.6 1.6c-.9 0-1.6-.7-1.6-1.6.1-.9.8-1.6 1.6-1.6zm-8.3-16c.9 0 1.6.7 1.6 1.6s-.7 1.6-1.6 1.6c-.9 0-1.6-.7-1.6-1.6s.8-1.6 1.6-1.6zm0 4.1c.9 0 1.6.7 1.6 1.6 0 .9-.7 1.6-1.6 1.6-.9 0-1.6-.7-1.6-1.6.1-.9.8-1.6 1.6-1.6zm0 4c.9-.1 1.6.6 1.7 1.4.1.9-.6 1.6-1.4 1.7h-.3c-.9-.1-1.5-.8-1.4-1.7.1-.7.7-1.3 1.4-1.4zm0 3.9c.9-.1 1.6.6 1.7 1.4.1.9-.6 1.6-1.4 1.7h-.3c-.9-.1-1.5-.8-1.4-1.7.1-.8.7-1.4 1.4-1.4zm0 4c.9 0 1.6.7 1.6 1.6 0 .9-.7 1.6-1.6 1.6-.9 0-1.6-.7-1.6-1.6.1-.9.8-1.6 1.6-1.6zm-4-11.9c.9-.1 1.6.6 1.7 1.4s-.6 1.6-1.4 1.7h-.3c-.9-.1-1.5-.8-1.4-1.7 0-.8.6-1.4 1.4-1.4zm-8.5-.3c.9 0 1.6.7 1.6 1.6 0 .9-.7 1.6-1.6 1.6-.9 0-1.6-.7-1.6-1.6 0-.9.7-1.6 1.6-1.6zm0 4.1c.9 0 1.6.7 1.6 1.6 0 .9-.7 1.6-1.6 1.6-.9 0-1.6-.7-1.6-1.6 0-.9.7-1.6 1.6-1.6zm-4-8.1c.9-.1 1.6.6 1.7 1.4.1.9-.6 1.6-1.4 1.7h-.3c-.9-.1-1.5-.8-1.4-1.7 0-.7.6-1.3 1.4-1.4zm0 4c.9-.1 1.6.6 1.7 1.4.1.9-.6 1.6-1.4 1.7h-.3c-.9-.1-1.5-.8-1.4-1.7 0-.7.6-1.3 1.4-1.4zm0 4.1c.9 0 1.6.7 1.6 1.6 0 .9-.7 1.6-1.6 1.6-.9 0-1.6-.7-1.6-1.6 0-.9.7-1.6 1.6-1.6zm0 4c.9 0 1.6.7 1.6 1.6 0 .9-.7 1.6-1.6 1.6-.9 0-1.6-.7-1.6-1.6 0-.9.7-1.6 1.6-1.6zm-4.3-8.1c.9-.1 1.6.6 1.7 1.4s-.6 1.6-1.4 1.7h-.3c-.9-.1-1.5-.8-1.4-1.7 0-.7.6-1.3 1.4-1.4zm0 4.1c.9 0 1.6.7 1.6 1.6 0 .9-.7 1.6-1.6 1.6-.9 0-1.6-.7-1.6-1.6 0-.9.7-1.6 1.6-1.6zm0 4c.9 0 1.6.7 1.6 1.6 0 .9-.7 1.6-1.6 1.6-.9 0-1.6-.7-1.6-1.6 0-.9.7-1.6 1.6-1.6zm0 4.1c.9 0 1.6.7 1.6 1.6 0 .9-.7 1.6-1.6 1.6-.9 0-1.6-.7-1.6-1.6 0-.9.7-1.6 1.6-1.6zm-4.5-16.2c.9 0 1.6.7 1.6 1.6 0 .9-.7 1.6-1.6 1.6s-1.6-.7-1.6-1.6c.1-.9.8-1.6 1.6-1.6zm0 4c.9 0 1.6.7 1.6 1.6 0 .9-.7 1.6-1.6 1.6s-1.6-.7-1.6-1.6c.1-.9.8-1.6 1.6-1.6zm0 4.1c.9 0 1.6.7 1.6 1.6s-.7 1.6-1.6 1.6-1.6-.7-1.6-1.6.8-1.6 1.6-1.6zm0 4c.9 0 1.6.7 1.6 1.6 0 .9-.7 1.6-1.6 1.6s-1.6-.7-1.6-1.6c.1-.9.8-1.6 1.6-1.6zm-4-8.1c.9 0 1.6.7 1.6 1.6 0 .9-.7 1.6-1.6 1.6-.9 0-1.6-.7-1.6-1.6s.7-1.6 1.6-1.6zm0 4.1c.9 0 1.6.7 1.6 1.6 0 .9-.7 1.6-1.6 1.6-.9 0-1.6-.7-1.6-1.6 0-.9.7-1.6 1.6-1.6z"/></g></svg>