<svg xmlns="http://www.w3.org/2000/svg" viewBox="0 0 160 160"><path d="M26 45.8c-5.5.5-10.2 1.6-11.5 2.7-.7.6-.7.6-.2 1.2.7.7 3.7 1.6 7.3 2.2 4 .7 12.5.7 13.7 0 1.2-.7 1.6-1.4 1.6-3s-.6-2.4-2.2-2.8c-1.4-.4-5.8-.6-8.7-.3z"/><path d="M39.8 46c-.1.3-.3 2.1-.3 4.1 0 4.1.1 3.8-2.2 3.9l-1 .1-.3 5.1-1.2.3c-2.5.5-4.1 2.8-3.8 5.3.1 1.9 1 3.3 2.6 4.1 1.1.5 1.5.5 11.2.5 5.5 0 10.1.1 10.2.2 0 .1-1.1 9.4-2.6 20.6-1.4 11.2-2.7 21-2.7 21.7-.1 1.6.8 2.6 2.3 2.6 1.2 0 2-.6 2.3-1.9.1-.5 1.5-10.3 3-21.8.9-7 1.9-13.9 2.9-20.9.1 0 1.1 1.4 2.2 3.1 2.9 4.6 2.4 4.3 7.6 4.3h4.4V83l-5.1.1c-4.7.1-5.2.1-5.9.6-1.6 1.2-1.6 1.4-1.6 11 0 9.5 0 9.8 1.5 11l.8.7h31.4l.8-.7c1.5-1.3 1.5-1.5 1.5-11 0-9.6-.1-9.8-1.6-11-.7-.5-1.2-.5-5.9-.6l-4.9-.1v-5.6h4.4c5.2 0 4.7.3 7.6-4.3.7-1.1 1.4-2.1 2.2-3.1.1 0 1.4 9.4 2.9 20.9 1.5 11.5 2.9 21.3 3 21.8.3 1.3 1.1 1.9 2.3 1.9 1.5 0 2.4-1 2.3-2.6 0-.7-1.3-10.4-2.7-21.7-.9-6.9-1.8-13.8-2.6-20.6.1-.1 4.6-.2 10.2-.2 9.8 0 10.1 0 11.2-.5 1.6-.7 2.5-2.2 2.6-4.1.3-2.5-1.3-4.8-3.8-5.3l-1.2-.3-.3-5.1-1-.1c-2.3-.1-2.2.1-2.2-3.9 0-2-.1-3.8-.3-4.1-.2-.4-.5-.5-1.4-.5-.6 0-1.2.1-1.4.3-.2.2-.3 1.5-.3 3.9 0 2.5-.1 3.7-.3 3.9-.2.2-.9.3-1.7.3-1.6 0-1.7 0-1.7 3.1v2.3H46.5v-2.3c0-3.1 0-3.1-1.7-3.1-.8 0-1.5-.1-1.6-.3-.2-.2-.3-1.5-.3-3.9 0-2.5-.1-3.7-.3-3.9-.2-.2-.8-.3-1.4-.3-.9-.1-1.2 0-1.4.4zm42.8 40.1c2.9.9 5.2 3.2 6.2 6.2.4 1.5.3 4.2-.3 5.8-.9 2.1-2.5 3.9-4.6 4.9-1.3.6-1.8.7-3.9.7-2.2 0-2.6-.1-3.9-.7-2-1.1-3.6-2.8-4.6-4.9-.6-1.6-.7-4.2-.3-5.8.9-2.9 3.2-5.2 6.1-6.2 1.7-.6 3.6-.6 5.3 0z"/><path d="M77.8 89.9c-2 .9-3.5 3.7-3.1 5.7a5.47 5.47 0 0 0 8 3.7c2-1.2 3-3.5 2.4-5.8-.6-2.4-2.7-4.1-5.2-4.1-.5.1-1.5.3-2.1.5z"/><path d="M50.1 45.7c-3.9.7-4.5 1.1-4.5 3.5 0 1.8.5 2.4 2.3 2.9 1.5.5 7.2.5 10.5.1 6.9-.8 11.3-2.5 9.7-3.8-1.3-.9-4.9-1.9-9.1-2.4-2.5-.3-8-.5-8.9-.3z"/><path d="M103.5 45.8c-6.3.6-11.9 2.1-11.9 3.2 0 1.7 7.8 3.5 15.6 3.5 5.8 0 7.2-.6 7.2-3.3 0-1.8-.6-2.6-2.4-3.1-1.6-.5-5.6-.6-8.5-.3z"/><path d="M126.8 45.8c-1.8.2-3 .8-3.4 1.5-.4.8-.3 2.9.2 3.6.9 1.3 1.7 1.5 7.1 1.5 3.7 0 5.8-.1 7.9-.5 3.5-.6 6.6-1.5 7.2-2.2.5-.5.5-.5-.2-1.2-1.3-1.1-6-2.2-11.9-2.7-3.7-.3-4.7-.3-6.9 0z"/></svg>