<svg xmlns="http://www.w3.org/2000/svg" viewBox="0 0 160 160"><path d="M115.7 85.1V72.5c0-1.3 1.1-2.4 2.3-2.4l8.3 1.6v-8.2c0-2.4-1.7-3.4-4.2-4.3l-23.2-6.6c1.6 1.4 1.9 2 1.9 4.4v45.2c0 2.4-.5 4.1-2 5.2l23.3-7.1c2.4-.8 4.2-4.2 4.2-6.6v-7.9l-8.3 1.6c-1.3.1-2.3-.9-2.3-2.3 0 .1 0 .1 0 0z"/><path d="m126.7 73.5-7.6-1.4c-1 0-1.8.8-1.8 1.9v9.9c0 1 .8 1.9 1.8 1.9l7.6-1.4c1.2-.4 1.8-.8 1.8-1.9v-7c0-1.2-.8-1.7-1.8-2z"/><path d="M98.7 57c0-5.1-4.2-4.5-4.2-4.5s-57.1 4.7-60.1 5.1c-3 .4-2.8 4.4-2.8 4.4v36.3c0 3.7 2.6 3.8 2.6 3.8l16.5 1.4 8.1-11.7s1.1-1.8 2.5-1.8 2.4 1.9 2.4 1.9l9.1 13.5s18.9 1.9 22.5 1.9c3.6 0 3.4-5 3.4-5V57zM44.5 89.7c-3.7 0-6.7-4.6-6.7-10.3 0-5.7 3-10.3 6.7-10.3s6.7 4.6 6.7 10.3c0 5.7-3 10.3-6.7 10.3zm36.2 1.4c-4.7 0-8.4-5.2-8.4-11.7 0-6.5 3.8-11.7 8.4-11.7 4.7 0 8.4 5.2 8.4 11.7 0 6.5-3.8 11.7-8.4 11.7z"/></svg>