<svg xmlns="http://www.w3.org/2000/svg" viewBox="0 0 47 31"><path d="M40.2 7.2c-.3-.4-.7-.6-1.2-.6h-8.3V1.5C30.7.7 30 0 29.2 0H1.5C.7 0 0 .7 0 1.5S.7 3 1.5 3h26.2v21.7H15.8c-.6-1.9-2.4-3.3-4.5-3.3-2.6 0-4.8 2.2-4.8 4.8S8.7 31 11.3 31c2.1 0 3.9-1.4 4.5-3.3h13.4c.8 0 1.5-.7 1.5-1.5V9.6h7.6l5.7 7.3v7.9h-2.2c-.6-1.9-2.4-3.3-4.5-3.3-2.6 0-4.8 2.2-4.8 4.8 0 2.3 1.6 4.2 3.8 4.7h1.9a4.7 4.7 0 0 0 3.6-3.2h3.7c.8 0 1.5-.7 1.5-1.5v-9.9c0-.4-.1-.7-.3-1l-6.5-8.2zM11.3 28c-1 0-1.8-.8-1.8-1.8s.8-1.8 1.8-1.8 1.8.8 1.8 1.8-.9 1.8-1.8 1.8zm26.1 0c-1 0-1.8-.8-1.8-1.8s.8-1.8 1.8-1.8 1.8.8 1.8 1.8-.9 1.8-1.8 1.8z"/><path d="M20.9 8.1c0-.8-.7-1.5-1.5-1.5H4.8c-.8 0-1.5.7-1.5 1.5S4 9.6 4.8 9.6h14.6c.8 0 1.5-.7 1.5-1.5z"/><path d="M1.5 16.2h14.7c.8 0 1.5-.7 1.5-1.5s-.7-1.5-1.5-1.5H1.5c-.8 0-1.5.7-1.5 1.5s.7 1.5 1.5 1.5z"/></svg>