<svg xmlns="http://www.w3.org/2000/svg" viewBox="0 0 40 40"><path d="M11.6 1.7v5c0 1 .8 1.7 1.7 1.7 1 0 1.7-.8 1.7-1.8V2.1C15.1 1 14.7.3 13.7 0h-.8c-.8.3-1.3.8-1.3 1.7z"/><path d="M1.6 15h5.1c.7 0 1.2-.3 1.5-1 .5-1.1-.3-2.3-1.6-2.3H2.1c-1 0-1.7.3-2.1 1.3v.7c.2.8.7 1.3 1.6 1.3z"/><path d="M38.4 25h-5.1c-.7 0-1.3.6-1.5 1.3-.3 1.1.5 2 1.7 2h4.4c1 .1 1.7-.3 2.1-1.3v-.7c-.3-.7-.7-1.3-1.6-1.3z"/><path d="M28.4 37.8v-4.4c0-1.1-.8-1.8-1.7-1.8-1 0-1.7.8-1.7 1.8v4.5c-.1 1.1.3 1.8 1.3 2.1.3 0 .5 0 .8-.1 1-.3 1.3-1.1 1.3-2.1z"/><path d="m25.6 2.4-2.7 2.7C21.9 6 21 7 20 8c-.7.7-.7 1.6-.1 2.3.7.7 1.8.7 2.5 0L28 4.7c1-1 2.1-1.6 3.5-1.6 2.3 0 3.9 1.3 4.8 3.3.8 1.7.4 3.7-1.1 5.2-3.5 3.5-7 7.1-10.6 10.6-.9 1-2.1 1.5-3.4 1.5s-2.4-.6-3.4-1.5c-.4-.3-.9-.6-1.4-.5-.7.1-1.2.4-1.4 1.1-.3.7-.1 1.3.4 1.8 1.6 1.6 3.6 2.3 5.9 2.3 2.2.1 4.4-.8 5.9-2.5 3.3-3.3 6.6-6.7 10-10a8.9 8.9 0 0 0 1.6-9.9c-2.4-5.1-9.6-5.7-13.2-2.1z"/><path d="M19.1 32.9c.3-.4.5-.8.4-1.3-.1-.7-.5-1.2-1.1-1.4-.7-.3-1.3-.1-1.8.4l-4.7 4.7c-2.1 2-4.8 2.1-6.9.1-.2-.1-.3-.3-.5-.5-1.8-2-1.7-5 .3-6.8 2.2-2.1 4.3-4.3 6.5-6.5l3-3c1.2-1.1 2.5-1.7 4.2-1.4 1.1.2 1.9.8 2.7 1.5.4.4.8.6 1.4.5.7-.1 1.2-.5 1.4-1.1.2-.7.1-1.3-.4-1.8a7.68 7.68 0 0 0-5.4-2.3c-2.8 0-4.8.9-6.5 2.6l-9 9a8.3 8.3 0 0 0-2.4 7.7c.6 3.1 2.3 5.2 5.2 6.2.8.3 1.6.4 2.4.5h1.5c1.6-.1 3.2-.8 4.6-2 1.8-1.6 3.4-3.4 5.1-5.1z"/><path d="M6.2 3.8c-.4-.3-.7-.5-1.2-.5-.7 0-1.3.4-1.5 1-.3.7-.2 1.3.4 1.8 1.6 1.7 3.3 3.4 5 5.1.6.6 1.7.6 2.3 0 .6-.7.7-1.7 0-2.4-1.6-1.7-3.3-3.3-5-5z"/><path d="M30 28.3c-.7.1-1.2.4-1.4 1-.3.6-.2 1.3.3 1.8 1.6 1.7 3.3 3.3 5 5 .6.6 1.7.6 2.3 0 .6-.6.7-1.6 0-2.3-1.6-1.7-3.3-3.3-5-5-.4-.3-.7-.5-1.2-.5z"/></svg>