<svg xmlns="http://www.w3.org/2000/svg" viewBox="0 0 180 195"><path fill="#ffffff" d="M153.3 87.1c8.1 0 14.8-6.6 14.8-14.8s-6.6-14.8-14.8-14.8-14.8 6.6-14.8 14.8 6.6 14.8 14.8 14.8z"/><path fill="#ffffff" d="M101.1 143 94 160.9l-22.8 14.9a7.11 7.11 0 0 0-2.8 9.7c1.9 3.5 6.3 4.7 9.7 2.8.2-.1.4-.3.7-.4 3.8-2.4 22.3-14.1 25.5-15.9 3.5-2 4.1-5.1 4.1-5.1l4.9-16-5.8-2.6c-5.6-2.6-6.4-5.3-6.4-5.3z"/><path fill="#ffffff" d="M151.3 145s-1.2-3.8-4.6-5.2c-3.4-1.3-18.1-7.8-18.1-7.8l15.4-25.6s3.8-9-.3-13.4c-4.2-4.4-13.8-9.8-13.8-9.8h-7.5l15.8-26.8c3.3-5.7 1.4-13.1-4.3-16.4L84.6 10.9c-5.7-3.3-13.1-1.5-16.4 4.2L21.1 95c-3.3 5.7-1.4 13.1 4.3 16.4l49.4 29.1c5.7 3.3 13 1.4 16.4-4.2l22.9-38.9h8.1l-14.8 26.2s-5.1 9.2-.3 14.3c4.2 4.4 12.7 6.9 12.7 6.9l17.3 6.5 5.1 31.3c.7 3.9 4.4 6.5 8.3 5.8a7.1 7.1 0 0 0 5.9-7.5l-5.1-35.9zM30 103.7c-1.4-.9-1.9-2.7-1.1-4.1L76 19.8c.9-1.4 2.7-1.9 4.1-1.1l11.5 6.8-50.1 85-11.5-6.8zm53.5 28.1c-.9 1.4-2.7 1.9-4.1 1.1l-30.1-17.8 50.1-85 30.1 17.8c1.4.8 1.9 2.7 1.1 4.1L112 83.3h-8.8L83.3 97.7l-1.2.9c-2.9 2.7-3 7.3-.3 10.1 2.4 2.6 6.3 3 9.3 1l.1-.1c.2-.1.3-.3.5-.4l9.7-7.8-17.9 30.4z"/><path fill="#f0c42e" d="m61.2 9.4-47 79.9c-3.3 5.7-1.4 13 4.2 16.4l49.4 29.1c5.7 3.3 13 1.4 16.4-4.2l47-79.8c3.4-5.7 1.5-13.1-4.2-16.4L77.7 5.2c-5.8-3.3-13.1-1.4-16.5 4.2zM21.9 93.8 69 14c.9-1.4 2.7-1.9 4.1-1.1l11.5 6.8-50.1 85L23 97.9c-1.4-.8-1.9-2.6-1.1-4.1zm101.6-47.6-47 79.8c-.9 1.4-2.7 1.9-4.1 1.1l-30.1-17.8 50.1-85 30.1 17.8c1.4.8 1.8 2.7 1 4.1z"/><path fill="#3a3a3a" d="M147.3 81.3c8.1 0 14.8-6.6 14.8-14.8s-6.6-14.8-14.8-14.8c-8.1 0-14.8 6.6-14.8 14.8s6.6 14.8 14.8 14.8z"/><path fill="#3a3a3a" d="m93.9 137.3-7.1 17.9L64 170c-3.4 2-4.6 6.3-2.6 9.8s6.3 4.6 9.8 2.6c.2-.1.3-.2.5-.3 3.8-2.4 22.3-14.1 25.5-15.9 3.5-2 4.1-5.1 4.1-5.1l4.9-16-5.8-2.6c-5.8-2.6-6.5-5.2-6.5-5.2z"/><path fill="#3a3a3a" d="M144.1 139.2s-1.2-3.8-4.6-5.2-18.1-7.8-18.1-7.8l15.4-25.6s3.8-9-.3-13.4-13.8-9.8-13.8-9.8H96L76.1 91.9c-.4.3-.9.6-1.2.9-2.9 2.7-3 7.3-.3 10.1 2.4 2.6 6.3 3 9.3 1l.1-.1.5-.4 14.8-11.9H115l-14.8 26.2s-5.1 9.2-.3 14.2c4.2 4.4 12.7 6.9 12.7 6.9l17.3 6.5 5.1 31.3c.7 3.9 4.4 6.5 8.3 5.8a7.1 7.1 0 0 0 5.9-7.5l-5.1-35.7z"/></svg>