<svg xmlns="http://www.w3.org/2000/svg" viewBox="0 0 180 195"><path fill="#ffffff" d="M82.2 174.6c-.1-.1-10.5-13-12.6-15.8a7.06 7.06 0 0 0-5.6-2.7c-2.6 0-4.8 1.2-5.5 1.6l-5.5 2.7c-1.8-.5-5.6-1.9-9.3-6.3-3.3-3.8-3.3-9-3.1-11.1l5.9-5.9c2.4-2.1 3-5.7 1.2-8.4l-.2-.3L32.9 110c-1-1.3-2.6-2-4.2-1.9-2.9 0-5.9 2-6.8 2.6-10.9 7.8-11.6 14.6-11.6 15.3v.4l.1.4c6.4 35.7 26 51.1 35.5 58.6 1.2.9 2.1 1.7 2.9 2.3 4.6 4 10.4 6.3 16.5 6.4 2.4 0 4.5-.4 6.1-1.2 4.4-2.1 9.4-8 10.9-9.8 2.5-3.1 1.3-6.6.2-8.2l-.3-.3zm-13.9 11.9c-.5.2-1.6.5-3.1.5-4.4-.1-8.6-1.7-11.9-4.6-.9-.8-1.9-1.6-3.1-2.6-8.7-6.8-26.7-21-32.8-53.7.3-1 1.8-4.9 8.6-9.8.6-.4 1.5-.9 2.1-1.1l13.5 17-7.5 7.5-.2 1.1c-.1.4-1.9 10.4 4.5 17.9 6.3 7.4 13.3 8.7 14.6 8.9l1.1.2 7.6-3.8.2-.1c.7-.4 1.4-.6 2.2-.6 4.1 5.2 8.3 10.5 12.5 15.6-2.6 3-6.2 6.6-8.3 7.6z"/><path fill="#ffffff" d="M142.4 65.8c5.5-5.2 7.2-12 5-20.8-.3-1.3-1.7-2.2-3-1.8-.4.1-.8.3-1.1.6l-8.2 7.4c-1.4-.8-3.7-2.5-4.5-5.3l6.8-6.7c.9-.9 1-2.5.1-3.4l-.2-.2c-.2-.2-.4-.4-.7-.5-2.7-1.4-5.8-2.1-8.8-2.1-4.7 0-8.9 1.9-12 5.6-6 6.9-4.6 15-3.5 18.5l-3.5 3.5-10.3-9.2 4.7-3.3-20-13.7-10.6 10.3 13.7 20 3.3-4.7 9.2 10.3-3.3 3.3c-2.2-.7-4.4-1-6.7-1.1-5.4 0-10.5 2.3-14 6.4-.3.3-6.6 8.2-2.8 18.6.5 1.3 1.9 2 3.2 1.5.3-.1.6-.3.8-.5l8.3-7.3c1.3.6 3.6 2.1 4.7 5.9l-7.4 7.5c-1 1-1 2.6 0 3.5.3.3.7.6 1.2.7.1 0 2.7.6 6.2.6 6.8 0 12.1-2.3 15.3-6.6 2.8-3.8 4.2-8.4 4-13.1l16.2 16.2.2.2c2.1 1.7 4.7 2.7 7.5 2.7 2.2 0 4.6-.7 6.8-2.8l5.5-5.5.1-.1c5-5.4 2.3-11.7.1-14.3l-16.9-17c1 .1 2.2.2 3.3.2 4.9.1 8.7-1.1 11.3-3.5zM89.1 52l-2.7 4L79 45.3l4.7-4.7 10.6 7.3-3.9 2.7 14.8 13.3-4.1 4.1 1.2-1.2L89.1 52zm13.5 33.5c.1.3 2.6 7.8-2.3 14.5-2.8 3.8-7.8 4.5-11.4 4.5l4.7-4.8c.6-.6.8-1.4.7-2.2-1.8-10.1-9.8-11.4-10.1-11.5-.7-.1-1.5.1-2 .6L76 92c-.3-3.5.7-7.1 2.8-9.9 2.5-2.9 6.2-4.6 10.1-4.6 3.5 0 6.2 1.2 6.3 1.2 1 .4 2.1.2 2.8-.5l19-19c.7-.7.9-1.8.5-2.8 0-.1-3.5-8.3 2.2-14.9 2-2.5 5-3.9 8.2-3.8 1.2 0 2.4.2 3.4.4l-5 5c-.6.5-.8 1.3-.7 2.1 1 8.3 9 11.1 9.3 11.2.9.3 1.8.1 2.5-.5l6.1-5.4c.4 4.9-1 8.5-4.3 11.6-2 1.9-5.4 2.3-7.8 2.3-3.7 0-6.9-.9-7-.9-.9-.2-1.8 0-2.4.6l-18.5 18.7c-1 .8-1.2 1.8-.9 2.7zm5.5 1.8zm32.9 9.8-5.5 5.5c-3.3 3-6.9.4-7.6-.1l-18.6-18.6 14.9-15.1-2 2.1 18.7 18.7c.5.5 3.1 4.2.1 7.5zm-16-28.2z"/><path fill="#ffffff" d="M108.7 6C72.3 6 42.8 35.6 42.8 72c0 33.1 24.6 61 57.3 65.3v26.2s57.4-21.2 72-73.6l.2-.8.3-1.3.2-.8a66 66 0 0 0-49.1-79.3 68.3 68.3 0 0 0-15-1.7zM166 85.4v.2l-.1.5-.3 1.2-.1.4-.1.3c-5.6 20-18.5 37.7-38.5 52.4-6.2 4.6-12.8 8.7-19.7 12.2v-21.5l-6.1-.8a58.99 58.99 0 0 1-51.3-58.4c0-32.5 26.4-58.9 58.9-58.9 32.6.1 58.9 26.5 58.9 59.1 0 4.5-.6 8.9-1.6 13.3z"/><path fill="#3a3a3a" d="M59.1 188c-6.1-.1-12-2.3-16.5-6.4-.7-.6-1.7-1.4-2.9-2.3-9.4-7.4-29-22.8-35.5-58.6l-.1-.4v-.4c.1-.8.8-7.6 11.6-15.3.9-.6 3.9-2.6 6.8-2.6 1.7 0 3.2.7 4.2 1.9l14.7 18.5.2.3c1.7 2.7 1.2 6.3-1.3 8.4l-5.9 5.9c-.2 2.1-.2 7.3 3.1 11.1 3.7 4.3 7.5 5.8 9.3 6.3l5.5-2.8c.7-.4 2.9-1.6 5.5-1.6 2.3 0 4.3.9 5.6 2.7 4.2 5.3 8.4 10.5 12.6 15.8l.2.2c1.1 1.6 2.3 5.1-.2 8.2-1.4 1.8-6.5 7.7-10.9 9.8-1.5.9-3.6 1.3-6 1.3zm-47.9-67.9c6.1 32.7 24.1 46.8 32.8 53.7 1.2 1 2.3 1.8 3.1 2.6 3.3 2.9 7.5 4.5 11.9 4.6 1.5 0 2.6-.3 3.1-.5 2.1-1 5.7-4.6 8.3-7.7a938.7 938.7 0 0 1-12.5-15.6h-.1c-.7.1-1.4.3-2.1.6l-.2.1-7.7 3.8-1.1-.2c-1.3-.2-8.3-1.5-14.6-8.9-6.4-7.5-4.6-17.5-4.5-17.9l.2-1.1 7.5-7.5-13.5-17c-.6.2-1.5.7-2.1 1.1-6.7 5-8.2 9-8.5 9.9z"/><path fill="#f0c42e" d="M82.9 103.5c-3.4 0-6.1-.6-6.2-.6-1.3-.3-2.2-1.7-1.9-3 .1-.5.3-.9.7-1.2l7.4-7.5c-1-3.8-3.3-5.3-4.7-5.9L70 92.6a2.51 2.51 0 0 1-4-1c-2.3-6.3-1.3-13.3 2.8-18.6 3.5-4.1 8.6-6.4 14-6.4 2.8 0 5.2.6 6.7 1.1l16.8-16.8c-1-3.4-2.5-11.5 3.5-18.5 3-3.6 7.4-5.6 12-5.6 4.8 0 8.7 2 8.8 2.1.3.1.5.3.7.5l.2.2c.9 1 .8 2.5-.1 3.4l-6.8 6.7c.8 2.9 3 4.5 4.5 5.3l8.2-7.4c1-.9 2.6-.8 3.5.2.3.3.5.7.6 1.1 2.1 8.8.5 15.6-5 20.8-2.6 2.4-6.3 3.6-11.2 3.6-2.8 0-5.3-.4-6.8-.7l-16.5 16.6c.7 3.2 1.6 10.6-3.4 17.6-3.4 4.5-8.7 6.7-15.6 6.7zm-.2-5c3.7 0 8.6-.7 11.4-4.5 4.9-6.8 2.4-14.2 2.3-14.5-.3-.9-.1-1.9.6-2.6l18.5-18.7c.6-.6 1.6-.9 2.4-.7 0 0 3.3.9 7 .9 2.5 0 5.8-.4 7.8-2.3 3.3-3.1 4.7-6.8 4.3-11.6l-6 5.4c-.7.6-1.6.8-2.5.5-.3-.1-8.3-2.9-9.3-11.2-.1-.8.2-1.5.7-2.1l5.1-5c-1-.2-2.1-.4-3.4-.4-3.3 0-6 1.3-8.2 3.8-5.7 6.5-2.2 14.8-2.2 14.9.4.9.2 2-.5 2.8l-19 19c-.7.8-1.8 1-2.7.6-2-.8-4.1-1.2-6.3-1.2-4 0-7.4 1.5-10.1 4.6-.3.4-3.3 4.4-2.8 9.9l6.2-5.4c.6-.5 1.3-.7 2-.6.3.1 8.3 1.4 10.1 11.5.1.8-.1 1.6-.7 2.2l-4.7 4.7z"/><path fill="#3a3a3a" d="m83.4 54 9.2 10.3 3.5-3.5L82.9 46l-2.7 4-7.3-10.6 4.7-4.7L88.2 42l-3.9 2.7L99.1 58l3.5-3.5-10.3-9.2L97 42 77 28.1 66.4 38.7l13.7 20c.1 0 3.3-4.7 3.3-4.7z"/><path fill="#3a3a3a" d="M121.7 63.3c-1.2-.1-2.4-.3-3.5-.5l-2 2.1 18.7 18.7c.5.6 3.1 4.3.1 7.6l-5.5 5.5c-3.3 3-6.9.4-7.6-.1l-18.6-18.7-1.6 1.6c.2 1.1.5 2.6.6 4.5l16.2 16.2.2.2c2.1 1.7 4.7 2.7 7.4 2.7 2.2 0 4.6-.7 6.9-2.8l5.5-5.5.1-.1c5-5.4 2.3-11.7.1-14.3l-17-17.1z"/><path fill="#3a3a3a" d="M102.5 7c32.6.1 58.9 26.5 58.9 59.1 0 4.5-.5 9-1.5 13.3v.1c-.1.6-.3 1.1-.4 1.7l-.1.4-.1.3c-5.6 20.1-18.5 37.7-38.5 52.4-6.2 4.6-12.8 8.7-19.7 12.2V125l-6.1-.8a58.99 58.99 0 0 1-51.3-58.4C43.6 33.4 70 7 102.5 7zm0-7C66.1 0 36.6 29.6 36.7 66c0 33.1 24.6 61 57.3 65.3v26.2s57.4-21.2 72-73.6l.2-.8.3-1.3.2-.8a66 66 0 0 0-49.1-79.3C112.7.6 107.6 0 102.5 0z"/></svg>