<svg xmlns="http://www.w3.org/2000/svg" viewBox="0 0 180 195"><path fill="#ffffff" d="M114 54.6c8.1 0 14.9-5.5 16.9-13l5.5.8c1.2.1 2.3-.7 2.4-1.9.1-1.1-.6-2.2-1.8-2.4l-5.6-.8v-.7s-.5-6.5-1.1-9.2c-.6-2.7-2.5-3.3-2.5-3.3-7.4-1.6-14.9-2.4-22.4-2.4-2.6 0-3.2 1.3-3.2 1.3L99 28l-.2.4v.1c-4.8 8.3-2 19 6.3 23.9 2.8 1.4 5.8 2.2 8.9 2.2z"/><path fill="#ffffff" d="m152.4 93.9-26.7-2.2-9.2-21.1s-.5-2.8-6-8.5-16.8-3.4-16.8-3.4-23.9 4.5-31.8 6.3c-7.9 1.8-8.2 9.9-8.2 9.9l-.7 4.5-15.2-2.9c-1.6-.3-3.2.7-3.5 2.3l-7.4 38.3c-.3 1.6.7 3.2 2.4 3.5l51.2 9.9h.3c-.7.1-1.3 0-1.3 0l-9.4-1.8-3.1 17.1-23.6 20.4a7.35 7.35 0 0 0-1.2 10.4c1.4 1.8 3.6 2.8 5.9 2.8 2 0 3.8-.8 5.2-2.1 0 0 27.7-22 29.6-23.6 1.8-1.5 2.8-3.9 2.8-3.9s4.5-13.9 5.8-16.9c.8-2 4.9-1.1 4.9-1.1l22.9 8.6 7.6 29.1c.5 4.1 4.2 6.9 8.3 6.4 4.1-.5 6.9-4.2 6.4-8.3 0-.3-.1-.5-.1-.8-.8-5-4.6-27.1-5.6-31.8-1.1-5.4-4.6-6.9-4.6-6.9s-21.3-11.6-22.7-12.3c-1.4-.8-1.1-2.8-1.1-2.8l3.9-14.3 2.8 5.8s1.6 3.3 4.1 3.4l33.4.8c4.1 0 7.4-3.4 7.4-7.5 0-3.8-2.9-6.9-6.7-7.3zM80.9 78.6l-1.8 5.9 9.9 1.9-20.2-3.9.5-2.5 11.6-1.4zm-2.2 45.5-45.3-8.8L39.7 83l12.5 2.4L50.6 97l-.6 4.4v.2c-.5 4.1 2.4 7.8 6.4 8.3a7.44 7.44 0 0 0 8.3-8.3l2.9-13.2L85 91.7l-6.3 32.4z"/><path fill="#ffffff" d="M45.9 32.8h38a2 2 0 0 0 2-2 2 2 0 0 0-2-2h-38a2 2 0 0 0-2 2c0 1.2.9 2 2 2z"/><path fill="#ffffff" d="M58.9 38.8a2 2 0 0 0-2 2c0 1.1.9 2 2 2h23a2 2 0 0 0 2-2 2 2 0 0 0-2-2h-23z"/><path fill="#3a3a3a" d="M107.9 48.6c8.1 0 14.9-5.5 16.9-13l5.5.8h.3c1.2 0 2.1-1 2.1-2.2 0-1-.8-1.9-1.8-2.1l-5.5-.8v-.7s-.4-6.5-1.1-9.2c-.6-2.7-2.5-3.3-2.5-3.3-7.4-1.6-14.9-2.4-22.4-2.4-2.6 0-3.2 1.3-3.2 1.3L93 22l-.2.4c-4.8 8.3-2 19 6.3 23.9 2.7 1.4 5.8 2.3 8.8 2.3z"/><path fill="#3a3a3a" d="m146.3 87.9-26.7-2.2-9.3-21.1s-.5-2.8-6-8.5c-5.6-5.7-16.8-3.4-16.8-3.4S63.7 57.2 55.8 59c-7.9 1.8-8.2 9.9-8.2 9.9l-3.1 22-.6 4.4v.2c-.5 4.1 2.3 7.8 6.4 8.3 4.1.5 7.8-2.3 8.3-6.4.1-.7.1-1.3 0-2L63.4 74 75 72.6l-1.8 5.9 9.9 1.9c1.6.3 2.7 1.9 2.4 3.5L78 122.2c-.3 1.4-1.5 2.4-2.9 2.4h-.2c-.7.1-1.3 0-1.3 0l-9.4-1.8-3.2 17-23.6 20.4a7.35 7.35 0 0 0-1.2 10.4c1.4 1.8 3.6 2.8 5.9 2.8 2 0 3.8-.8 5.2-2.1 0 0 27.7-22.1 29.6-23.6 1.8-1.5 2.8-3.8 2.8-3.8s4.5-13.9 5.8-16.9c.8-2 4.9-1.1 4.9-1.1l22.9 8.6 7.6 29.1c.5 4.1 4.2 6.9 8.3 6.4 4.1-.5 6.9-4.2 6.4-8.3 0-.3-.1-.5-.1-.8-.8-5-4.6-27.1-5.6-31.8-1.1-5.4-4.6-6.9-4.6-6.9l-22.6-12.3c-1.4-.8-1.1-2.8-1.1-2.8l3.9-14.3 2.8 5.8s1.6 3.3 4.1 3.4l33.3.8c4.1 0 7.4-3.4 7.4-7.5 0-3.9-2.9-7.1-6.8-7.4z"/><path fill="#f0c42e" d="M74.8 125h.2c1.4 0 2.7-1 2.9-2.4l7.4-38.2c.3-1.6-.7-3.2-2.4-3.5L62.7 77l-1.3 5.9 17.4 3.4-6.3 32.4-45.3-8.8 6.3-32.3L46 80l.8-6-15.2-2.9c-1.6-.3-3.2.7-3.5 2.4l-7.4 38.2c-.3 1.6.7 3.2 2.4 3.5l51.2 9.9c.3-.1.4-.1.5-.1z"/><path fill="#f0c52e" d="M79.9 24.8a2 2 0 0 1-2 2h-38a2 2 0 0 1-2-2c0-1.1.9-2 2-2h38a2 2 0 0 1 2 2z"/><path fill="#f0c52e" d="M77.8 34.8a2 2 0 0 1-2 2h-23a2 2 0 0 1-2-2c0-1.1.9-2 2-2h23a2 2 0 0 1 2 2z"/></svg>